<svg enable-background="new 0 0 319.5 319" viewBox="0 0 319.5 319" xmlns="http://www.w3.org/2000/svg"><g fill="#faecca"><path d="m94 218.4c.1 0 .2-.1.2-.3 0-.1-.1-.2-.2-.2-.3.1-.3.5 0 .5z"/><path d="m62.7 263.2c.1 0 .2-.1.2-.3 0-.1-.1-.2-.2-.2-.2 0-.2.5 0 .5z"/><path d="m76.7 298.2c.3 0 .3-.4 0-.4-.1 0-.2.1-.2.3 0 0 .1.1.2.1z"/><path d="m24.8 161c.1 0 .2-.1.2-.3 0-.1-.1-.2-.2-.2-.3 0-.3.5 0 .5z"/><path d="m3.9 246.2c.3 0 .3-.4 0-.4-.1 0-.2.1-.2.3 0 0 .1.1.2.1z"/><path d="m32.8 209.2c.1 0 .2-.1.2-.3 0-.1-.1-.2-.2-.2-.3.1-.3.5 0 .5z"/><path d="m2.5 318.8c.3 0 .3-.4 0-.4-.1 0-.2.1-.2.3.1 0 .2.1.2.1z"/><path d="m155.8 301.8c.1 0 .2-.1.2-.3 0-.1-.1-.2-.2-.2-.3.1-.3.5 0 .5z"/><path d="m262.9 310.5c.1 0 .2-.1.2-.3 0-.1-.1-.2-.2-.2-.3.1-.3.5 0 .5z"/><path d="m219 298.2c.1 0 .2-.1.2-.3 0-.1-.1-.2-.2-.2s-.2.1-.2.3c0 .1.1.2.2.2z"/><path d="m153.5 235.9c.1 0 .2-.1.2-.3 0-.1-.1-.2-.2-.2-.3 0-.3.5 0 .5z"/><path d="m220.1 141.1c.1 0 .2-.1.2-.3 0-.1-.1-.2-.2-.2-.3 0-.3.5 0 .5z"/><path d="m191.8 184.8c.1 0 .2-.1.2-.3 0-.1-.1-.2-.2-.2s-.2.1-.2.3c.1.1.1.2.2.2z"/><path d="m211.8 239.5c.3 0 .3-.4 0-.4-.1 0-.2.1-.2.2s0 .2.2.2z"/><path d="m64.2 118.5c.3 0 .3-.4 0-.4-.1 0-.2.1-.2.3 0 0 .1.1.2.1z"/><path d="m39.5 108.6c.1 0 .2-.1.2-.3 0-.1-.1-.2-.2-.2s-.2.1-.2.3c0 .1.1.1.2.2z"/><path d="m78.5 162.2c.1 0 .2-.1.2-.3 0-.1-.1-.2-.2-.2-.2.1-.2.5 0 .5z"/><path d="m265.9 51.1c.1 0 .2-.1.2-.2s-.1-.2-.2-.2c-.3 0-.3.4 0 .4z"/><path d="m319.3 187.3c.1 0 .2-.1.2-.3 0-.1-.1-.2-.2-.2s-.2.1-.2.3c.1.1.2.2.2.2z"/><path d="m311.7 182.5c.3 0 .3-.4 0-.4-.1 0-.2.1-.2.2s.1.2.2.2z"/><path d="m311.7 193.5c.3 0 .3-.4 0-.4-.1 0-.2.1-.2.3.1 0 .1.1.2.1z"/><path d="m304.1 293.1c.3 0 .3-.5 0-.5-.1 0-.2.1-.2.3 0 .1.1.1.2.2z"/><path d="m193.8 118.9c.1 0 .2-.1.2-.3 0-.1-.1-.2-.2-.2s-.2.1-.2.3c0 .1.1.2.2.2z"/><path d="m278 122.3c.3 0 .3-.4 0-.4-.1 0-.2.1-.2.3 0 0 .1.1.2.1z"/><path d="m273.5 188c.1 0 .2-.1.2-.3 0-.1-.1-.2-.2-.2-.2 0-.2.5 0 .5z"/><path d="m82.7 20c.3 0 .3-.5 0-.5-.1 0-.2.1-.2.3.1.1.1.2.2.2z"/><path d="m34.4 38.7c.3 0 .3-.5 0-.5-.1 0-.2.1-.2.3 0 .1.1.2.2.2z"/><path d="m100.5 88.5c.3 0 .3-.4 0-.4-.1 0-.2.1-.2.3.1 0 .2 0 .2.1z"/><path d="m129.8 8.3c.3 0 .3-.5 0-.5-.1 0-.2.1-.2.3 0 .1.1.2.2.2z"/><path d="m211.9.7c.3 0 .3-.5 0-.5-.1 0-.2.1-.2.3 0 .1.1.2.2.2z"/><path d="m292.6 8.3c.3 0 .3-.5 0-.5-.1 0-.2.1-.2.3.1.1.1.2.2.2z"/><path d="m292.6 74c.3 0 .3-.4 0-.4-.1 0-.2.1-.2.2s.1.2.2.2z"/><path d="m106.9 193.1c.5 0 .5-.9 0-.9s-.5.9 0 .9z"/><path d="m104.4 259.1c.2 0 .4-.2.4-.5s-.2-.5-.4-.5c-.6.1-.6 1 0 1z"/><path d="m24.2 226.2c.5 0 .5-.9 0-.9s-.5.9 0 .9z"/><path d="m142.2 55.4c.5 0 .5-.9 0-.9s-.6.9 0 .9z"/><path d="m154.6 122.5c.5 0 .5-.9 0-.9s-.5.9 0 .9z"/><path d="m237.3 25.1c.5 0 .5-.9 0-.9s-.5.9 0 .9z"/><path d="m191.5 307.6c.5 0 .5-.9 0-.9s-.5.9 0 .9z"/><path d="m295.2 274c.5 0 .5-.9 0-.9s-.6.9 0 .9z"/><path d="m253 166.8c.2 0 .4-.2.4-.5 0-.2-.2-.4-.4-.4-.5 0-.5.9 0 .9z"/><path d="m298.4 148.1c.5 0 .5-.9 0-.9s-.6.9 0 .9z"/><path d="m257.6 90.8c.5 0 .5-.9 0-.9s-.5.9 0 .9z"/><path d="m307.3 52.7c.5 0 .5-.9 0-.9-.2 0-.4.2-.4.5-.1.2.1.4.4.4z"/><path d="m59.2.9c.2 0 .4-.2.4-.5 0-.2-.2-.4-.4-.4-.5 0-.5.9 0 .9z"/><path d="m66.2 57.6c.5 0 .5-.9 0-.9s-.5.9 0 .9z"/><path d="m9 83.9c.5 0 .5-.9 0-.9-.2 0-.4.2-.4.5-.1.2.1.4.4.4z"/><path d="m100.5 311.5c.8 0 .8-1.4 0-1.4s-.8 1.4 0 1.4z"/><path d="m140.6 281.8c.8 0 .8-1.4 0-1.4s-.8 1.4 0 1.4z"/><path d="m21.7 308.7c.8 0 .8-1.3 0-1.3s-.8 1.3 0 1.3z"/><path d="m30.5 259.6c.8 0 .8-1.4 0-1.4s-.7 1.4 0 1.4z"/><path d="m132.7 82c.8 0 .8-1.4 0-1.4s-.8 1.4 0 1.4z"/><path d="m171.5 54.4c.8 0 .8-1.3 0-1.3s-.8 1.3 0 1.3z"/><path d="m9 49.5c.8 0 .8-1.4 0-1.4s-.9 1.4 0 1.4z"/><path d="m14.7 7.4c.8 0 .8-1.4 0-1.4s-.8 1.4 0 1.4z"/><path d="m306.6 230.6c.8 0 .8-1.4 0-1.4-.8.1-.8 1.4 0 1.4z"/><path d="m276.7 289.4c.8 0 .8-1.4 0-1.4s-.8 1.4 0 1.4z"/><path d="m232.2 55c.8 0 .8-1.4 0-1.4s-.8 1.4 0 1.4z"/><path d="m243 5.3c.8 0 .8-1.3 0-1.3s-.8 1.3 0 1.3z"/><path d="m118.3 242.1c.1 0 .2-.1.2-.2s-.1-.2-.2-.2c-.3 0-.3.4 0 .4z"/><path d="m59.5 317.8c.1 0 .2-.1.2-.3 0-.1-.1-.2-.2-.2-.2.1-.2.5 0 .5z"/><path d="m55.7 318.8c.1 0 .2-.1.2-.2s-.1-.2-.2-.2-.2.1-.2.2.1.2.2.2z"/><path d="m56.5 312.1c.1 0 .2-.1.2-.3 0-.1-.1-.2-.2-.2-.2 0-.2.5 0 .5z"/><path d="m53.4 314c.3 0 .3-.5 0-.5-.1 0-.2.1-.2.3 0 .1.1.1.2.2z"/><path d="m50.4 295.7c.3 0 .3-.4 0-.4-.1 0-.2.1-.2.3.1 0 .1 0 .2.1z"/><path d="m42.7 315.7c.3 0 .3-.4 0-.4-.1 0-.2.1-.2.2-.1.1 0 .2.2.2z"/><path d="m50.2 79.2c.1 0 .2-.1.2-.3 0-.1-.1-.2-.2-.2-.2 0-.2.5 0 .5z"/><path d="m38.9 89.1c.3 0 .3-.4 0-.4-.1 0-.2.1-.2.3 0 0 .1.1.2.1z"/><path d="m36.5 83.3c.1 0 .2-.1.2-.3 0-.1-.1-.2-.2-.2-.2.1-.2.5 0 .5z"/><path d="m38.9 78.4c.3 0 .3-.4 0-.4-.1 0-.2.1-.2.3 0 0 .1 0 .2.1z"/><path d="m76.5 99.3c.1 0 .2-.1.2-.3 0-.1-.1-.2-.2-.2s-.2.1-.2.3c0 .1.1.2.2.2z"/><path d="m46.5 87.4c.1 0 .2-.1.2-.3 0-.1-.1-.2-.2-.2s-.2.1-.2.3c0 .1.1.2.2.2z"/><path d="m22.2 103.9c.3 0 .3-.4 0-.4-.1 0-.2.1-.2.3 0 0 .1.1.2.1z"/><path d="m231.8 104.7c.3 0 .3-.4 0-.4-.1 0-.2.1-.2.3.1 0 .1.1.2.1z"/><path d="m220.4 96.5c.1 0 .2-.1.2-.3 0-.1-.1-.2-.2-.2-.2 0-.2.5 0 .5z"/><path d="m192.7 111.3c.1 0 .2-.1.2-.3 0-.1-.1-.2-.2-.2-.3.1-.3.5 0 .5z"/><path d="m230.3 127c.1 0 .2-.1.2-.3 0-.1-.1-.2-.2-.2s-.2.1-.2.3c0 .1.1.1.2.2z"/><path d="m222.7 103.9c.3 0 .3-.4 0-.4-.1 0-.2.1-.2.3.1 0 .1.1.2.1z"/><path d="m199.5 86.6c.1 0 .2-.1.2-.3 0-.1-.1-.2-.2-.2-.3 0-.3.5 0 .5z"/><path d="m107.3 28.2c.1 0 .2-.1.2-.3 0-.1-.1-.2-.2-.2-.3.1-.3.5 0 .5z"/><path d="m106.4.9c.1 0 .2-.1.2-.3 0-.1-.1-.2-.2-.2-.3.1-.3.5 0 .5z"/><path d="m96.5 56c.1 0 .2-.1.2-.3 0-.1-.1-.2-.2-.2-.3.1-.3.5 0 .5z"/><path d="m135 138.5c-.1 0-.2.1-.2.3 0 .1.1.2.2.2.2 0 .2-.5 0-.5z"/><path d="m87.9 150.3c-.1 0-.2.1-.2.3 0 .1.1.2.2.2s.2-.1.2-.3c-.1-.1-.1-.2-.2-.2z"/><path d="m95.5 124.5c-.5 0-.5.9 0 .9s.6-.9 0-.9z"/><path d="m120.4 140.4c-.3 0-.3.4 0 .4.1 0 .2-.1.2-.2s0-.2-.2-.2z"/><path d="m111.3 157.7c-.1 0-.2.1-.2.3 0 .1.1.2.2.2.3-.1.3-.5 0-.5z"/><path d="m121.2 123.9c-.3 0-.3.4 0 .4.1 0 .2-.1.2-.2s-.1-.2-.2-.2z"/><path d="m198.1 13.3c.3 0 .3-.5 0-.5-.1 0-.2.1-.2.3 0 .1.1.1.2.2z"/><path d="m66.2 317.3c.1 0 .2-.1.2-.3 0-.1-.1-.2-.2-.2-.3.1-.3.5 0 .5z"/><path d="m82.9 304.1c.3 0 .3-.4 0-.4-.1 0-.2.1-.2.3 0 0 .1.1.2.1z"/><path d="m64.7 278.5c.3 0 .3-.4 0-.4-.1 0-.2.1-.2.3 0 0 .1.1.2.1z"/><path d="m63.9 305c.1 0 .2-.1.2-.3 0-.1-.1-.2-.2-.2s-.2.1-.2.3c0 .1.1.1.2.2z"/><path d="m35.1 298.4c.3 0 .3-.5 0-.5-.1 0-.2.1-.2.3 0 .1.1.1.2.2z"/><path d="m24.5 314.8c.1 0 .2-.1.2-.3 0-.1-.1-.2-.2-.2s-.2.1-.2.3.1.2.2.2z"/><path d="m31.3 319c.1 0 .2-.1.2-.3 0-.1-.1-.2-.2-.2-.3 0-.3.5 0 .5z"/><path d="m10.8 315.7c.1 0 .2-.1.2-.2s-.1-.2-.2-.2c-.3-.1-.3.4 0 .4z"/><path d="m.2 304.1c.3 0 .3-.4 0-.4-.1 0-.2.1-.2.3 0 0 .1.1.2.1z"/><path d="m257 234.9c.1 0 .2-.1.2-.3 0-.1-.1-.2-.2-.2-.3 0-.3.5 0 .5z"/><path d="m255.9 217.3c.3 0 .3-.4 0-.4-.1 0-.2.1-.2.3.1 0 .1.1.2.1z"/><path d="m264.3 209.9c.1 0 .2-.1.2-.3 0-.1-.1-.2-.2-.2s-.2.1-.2.3c0 .1.1.2.2.2z"/><path d="m197.2 31.3c-.3.4.2.9.5.5.3-.3-.2-.8-.5-.5z"/><path d="m206.8 49c-.3.4.2.9.5.5.3-.3-.2-.9-.5-.5z"/><path d="m204.9 58.6c-.3.3.2.9.5.5.4-.3-.2-.8-.5-.5z"/><path d="m225.8 188.4c.3 0 .3-.4 0-.4-.1 0-.2.1-.2.3 0 .1.1.1.2.1z"/><path d="m175 225.1c.1 0 .2-.1.2-.3 0-.1-.1-.2-.2-.2-.2.1-.2.5 0 .5z"/><path d="m150.1 226.9c-.2.2.1.5.3.3s-.1-.5-.3-.3z"/><path d="m146.5 170.8c-.2.2.1.5.3.3s-.1-.5-.3-.3z"/><path d="m193.9 141.5c-.2.2.1.5.3.3s-.1-.5-.3-.3z"/><path d="m207.8 197.5c-.2.2.1.5.3.3s-.1-.5-.3-.3z"/><path d="m111.5 196.1c-.4.4.1 1.1.5.7.5-.4 0-1.1-.5-.7z"/><path d="m197.9 171.1c-.4.4.1 1.1.5.7s-.1-1.1-.5-.7z"/><path d="m182.9 250.5c-.6.6.2 1.6.8 1s-.2-1.6-.8-1z"/></g></svg>