<svg height="835" width="788" xmlns="http://www.w3.org/2000/svg"><g fill="none" fill-rule="evenodd"><path d="M438 757s7 28 18 44c11 15 31 31 44 32s29-6 31-14c3-7 6-15 6-20v-18s-2 13-16 16c-13 4-39 5-44 1l-21-15c-8-8-18-26-18-26" fill="#fff"/><path d="M440 746s7 28 18 44c11 15 32 31 44 32 13 1 29-6 31-14 3-7 6-15 6-20v-18s-2 13-16 16c-13 4-39 5-44 1l-21-15c-8-8-18-26-18-26" fill="#aba6a4"/><path d="M607 699s14 24 30 29c16 6 30-2 35-10 4-7 5-25 5-25s-5 11-26 13c-20 1-37-4-44-7" fill="#fff"/><path d="M608 692s14 24 30 29 30-2 35-10c4-7 5-25 5-25s-5 11-26 13c-20 1-37-4-44-7" fill="#aba6a4"/><path d="M784 543l1-5-1 5m-12-31v-1a58 58 0 000 1m-3 28c-3-1-5-3-6-5l7 6-1-1m-5-204a55 55 0 010-1v1m3 7l-2-4 2 4m2 10l-2-5v-4l2 9m1 20l-2 7 2-10v3m-3 11l1-2-1 2m-1 108v2a632 632 0 010-2m-6-170v0m-30-39a1063 1063 0 000 1v-1m-7 279l3 5 1 2c-1-1-3-3-3-5l-3-5 2 3m-16-301l-2-2a35 35 0 012 2m-18 256v-10 10m-5-15v1l3 2-3-3m88-57a21 21 0 001 9 17 17 0 01-2-5l1-4m4-23v0m1 6v-1h1v5l-1-4m-1 9l1-3-1 3m12 98l-3-7c-2-5-5-9-8-12a62 62 0 01-10-24v-3l10-4c3-2 6-6 6-10 1-4 0-7-2-10l-5-7-2-2v-12l1-3 2-3 3-3 1-3c0-5-2-9-3-13l-6-9-4-3-1-4a50 50 0 01-2-7l1-5h1-1l1-3 5-11c2-7 1-14 0-19l-4-12-1-1c1-5 0-9-2-13l-2-5c-5-11-9-20-15-27-5-7-10-12-16-15a61 61 0 00-5-5l-8-7a114 114 0 01-6-6l-1-2a863 863 0 00-4-6c-3-5-8-9-14-10l-7 1-6-1a193 193 0 01-7-4l-11-6h-9v-1c0-3-1-7-4-9l-5-3-7-2c-5-2-7-8-11-12l-14-10-14-7a181 181 0 00-70-13 193 193 0 00-26-57 1112 1112 0 00-23-48c-4-5-9-10-13-12l-6-4a615 615 0 00-14-27c-6-9-12-17-19-21a43 43 0 00-21-8l-2-1a59 59 0 00-38-1c-5 1-10 4-14 6a175 175 0 01-24 10l-4-4a34 34 0 00-6-5h-5l-5 3-17 8a187515 187515 0 00-122 62l-7 5-1 2v-1 2a53 53 0 00-2 18l-22 5-11 3c-3 2-7 4-9 7l-6 9-3 10-4 18v-2 4l1 9a233 233 0 0029 96l4 7 1 2v-1a216 216 0 0021 31l11 16 12 26 1 7-14 23a121 121 0 00-10 22l-8 8a134 134 0 00-7 9l-1 1-7 6-2 2-2-2a61 61 0 00-2-9c2-3 2-6 2-9l-2-7 1-1v-1l-1 2a12 12 0 010-4 7 7 0 001-3l-1 2v-2l3-1 4-4 3-9v-10c0-3-2-6-4-8-2-3-5-4-8-4l-8 1-7 2-10 7-8 3-3 1-4-1h-1 2c5-1 9-3 14-6l5-5c1-2 2-5 1-7l-1-4-2-3-6-3H89l-11 5-19 10a79 79 0 00-21 16l-21 20c-7 7-13 16-16 26a55 55 0 008 42l8 10c5 4 10 8 15 10a190 190 0 0058 71l1 1 7 5c6 5 14 9 22 12a99 99 0 0052 3c8-2 15-6 20-11a99 99 0 0027-34l10-3c2 0 3-2 4-3l3-5 1-6h2l5 1c3-1 6-2 7-4l3-4 12-1 12-4 2-1h5l11 2 4 3 5 4 7 8 7 9 10 5h10l9-1 3 1a118 118 0 0112 28l1 1h-1a1985 1985 0 001 0l1 5v5a471 471 0 0011 71c3 11 6 21 11 30l12 23 7 14c2 10 4 20 9 28 4 9 11 16 17 21a452 452 0 012 3l2 2a81 81 0 0110 12l6 9 7 7c5 5 12 8 18 10a76 76 0 0040 2l9-4c3-1 6-3 8-6 4-4 6-10 9-15a134 134 0 0012-35v-1-7-2l2-9a37 37 0 00-3-21v-1 1a82 82 0 00-4-7l-1-9c0-5 0-11-2-16-2-9-6-17-9-24l-4-16-1-4h1l7-3c5 1 8 5 11 8l8 13c4 4 7 6 9 10l3 6a22 22 0 0012 11l4 2 3 2 2 1 3 7c1 4 1 7 3 10 2 4 5 6 8 8l9 6c13 5 28 6 41 1 7-2 13-5 18-9 6-4 11-7 15-12a40 40 0 0012-32l-4-15c-2-5-2-10-2-14l1-23v-11-19c-2-12-7-22-13-28a92 92 0 00-16-16 43 43 0 00-13-21l-1-1v-1l-4-4-12-12-23-17c-4-3-8-5-10-8-4-5-6-11-6-16l1-16 2-7c3-6 5-13 5-19a55 55 0 00-14-41l-4-7v-5h4l6 1 11-4 5-4 11 5 4 2 1 1 2 3a91 91 0 007 8l1 2 1 12c3 6 7 10 12 13 2 2 5 3 7 3a20 20 0 014 9v10l-2 12-2 12c0 8 0 16 2 23s6 12 10 18l7 14 1 7c1 3 2 5 4 6l4 1a60 60 0 0010 46l2 5 2 6 2 6 4 5 4 3 5 3c4 2 8 1 11-2l1-4v-2l-1-4-3-4-2-3a183 183 0 01-10-18 126 126 0 009 10l6 6 5 2 4-1 4-4 1-1a17 17 0 001-7c3 2 6 4 9 4l7-2a8 8 0 004-6l-1-6v-2 1l7 6a122 122 0 008 5l5-1 3-3c2-3 2-6 2-9" fill="#fff"/><path d="M195 340a105 105 0 004-29v-8c-3 7-4 14-5 19v9l1 9zm1-38l-2-7-1-2-2 23v10c5-9 5-18 5-24zm-4-7v-10a64 64 0 00-5 35l5-25zm-5-8a29 29 0 00-2-8l-2 20a6183 6183 0 00-1 9c5-7 5-16 5-21zm181 223a34 34 0 009-3l-21-1-8-1h-3c9 5 18 5 23 5zm336 31v-2 2zm32-219l-2 1 5 1h2l-5-2zm4 6a134 134 0 01-7-4l-1 2 8 2zm-5 2l-4-2 1 1 3 1zM533 196h2a24 24 0 016-4 83 83 0 00-8 4zm120 69a180 180 0 01-2 1h1l1-1zm8 278l1-1-1 1zm-229 63l-3-1a300 300 0 003 1zm-9-67l2-2c8-4-1-1-13 2l-7 2 18-2zm-39-17l-3-1h-3l6 1zm-43-71l-2-1-8 1-5 5a53 53 0 0115-5zm-44-17l1 6 1-7c0-2-1-1-2 1zm-45 28a201 201 0 01-1-1l1 1zm-12 16l-2-3 2 11v2l4 16v-2l-1-12-3-12zm-56 52v-3l-1 7 1-4zm-19-22v-3a70 70 0 01-7 26c-4 8-10 15-17 22l2-1 5-5a80 80 0 0014-26l3-13zm27-76a54 54 0 019 2l5-2v-1h-3l-11 1zm38-23l5 2a1291 1291 0 00-5-2zm15-1l5 7-2-4-3-3zm5 13l-1-1 1 1zm153-100a236 236 0 01-35 18h4l22-10 8-7 2-1h-1zm12-5a168 168 0 009-9l-3 2-6 7zm-50 26h-5l-9 3 14-3zm-31 105l2-1v-1zm90-142l6-3 6-7c1-3 1-5-1-7a111 111 0 01-11 17zm46 398l13-8-2-2-11 10zM146 482l-3 8 3-8zm-81 17h2l-3-1-7 2 8-1zm-18-50l-2-2v1h1l1 1zm-3-9v1l3-5v-2l-1 1-2 2v3zm32-79zm-2 0l-1 1 1-1zm196-148zM388 75l-3-16v4l1 8 2 4zm381 450l1 2-1-1-2-3v-1h-1l10 15-3-3a58 58 0 01-9-10l-1 1 10 15-3-2a50 50 0 01-13-15l-2-3h-3l3 17-3-6 3 12-6-11-5-13-2 1 12 25-3-3a57 57 0 01-12-21l-2 1 17 25-3-2a53 53 0 01-16-19l-2 7s-4-5-8-7c4 6 8 13 12 23l-2-2a58 58 0 01-14-22h-1l1 2 15 25-3-3a54 54 0 01-15-20v2a1143 1143 0 0014 21l-3-2a30 30 0 01-13-15v1c-4 5-5-1-10-3l1 2c3 7 7 16 10 27l-2-3-3-4 3 7-2-3a51 51 0 01-7-11l8 20-2-2-4-5 6 11-3-2a77 77 0 01-12-22l-2-8v-6l-2-3-5-14c-3-7 0 0 3-5s1-7 1-7-3-5-6-5-3-5-7-7 2-7 2-7l-5-9-6-9c-4-3-5-10-5-10v-25l-1-19c0-9 1-7-1-10-1-4 3-6 1-10-2-5-2-4-6-6l-10-7c-7-6-5-10-8-14-4-4-1-10-11-14-9-3-14-11-15-7s-6-2-17 1l-17 5 5 14c3 10 3 7 10 21s1 25-2 37-6 24-5 29l1 11 1 1v-5l3 9v-3l1 2a215 215 0 014 12l4 1v-7l1 3a184 184 0 012 6l4 5-1-7a66 66 0 006 13l4 6v-1l-3-22 1 3 3 8 1 1-1-3c-2-9 8 9 13 14l2 2v-3a40 40 0 002 6l1 4 2-6s2 7 1 15v5c0-4 1-8 4-12v8h1c1-3 2-3 3-2v-1 2l3 5 2-5s1 4-1 9l3 6 3-5v6l-1 2 1 1 4-6v6l-2 3 4-4s1 7-4 13v22s5-17 9-24c3-7 7 3 9 9v-1 3l1 10 1-3v17l4-7v3a288 288 0 01-2 13v3l3-8-1 16v3l3-7-1 12-1 4 1 12 2-3-2 10v1a992 992 0 010 7l4-7-2 9-1 6v3l4-8s0 8-3 17l2-2-2 4v1l4-3-4 7v2l10-14-1 2a42 42 0 01-11 21c-4 6-12 10-25 18-8 6-14 6-18 5-2 2-5 3-8 3l4-4-2-2c-3 3-8 5-14 5l2-1a174 174 0 018-6c-4 2-10 5-17 5l2-2 6-3 4-2h-3c-3 2-8 3-14 1h1a2043 2043 0 008-3l-3-3c-3 2-9 4-15 2h2a3388 3388 0 0111-4v-1h-2c-3 1-7 2-11 1l2-1 6-2 2-1-10-8 14-14h-5c-2 2-6 4-11 5 0 0 1-3 4-5v-1l-2 1v-1h-1c-4 2-8 4-14 5l7-5h-4c-9-2-15-5-21-17-7-11-20-23-29-22-9 0-14 2-14 2l-4 7c-3 7 2 8 3 11l1 13c1 6 2 4 8 16 6 11 2 6 5 14 2 8 4 12 7 17 2 5 2 25-2 39-3 14-12 36-28 47-9 6-16 6-22 3h-1l-2-1-8 1-3 1 2-2 2-1h-1l4-2h-14l9-2v-1h-1l-1-1-20 2 10-4 8-1-1-3-22 2 21-6-22 1 21-5-3-4c-7 2-16 3-26 2l5-1 11-2 3-1c-3 0-2-2 1-6-6 3-13 5-21 6l4-2h1a198 198 0 0137-22l1-3h-1c-8 6-22 13-38 16l4-2a425 425 0 0025-13c-8 3-19 6-26 6h-1c-6 4-13 7-22 10l5-3a229 229 0 0016-10l3-5-25 11 5-3a396 396 0 0027-17l4-5c-8 6-18 11-29 15l5-4a405 405 0 0034-22l6-10a107 107 0 01-50 32l6-3a210 210 0 0030-20l-21 10 4-3 2-1a340 340 0 0113-13c-4 2-8 5-13 6l2-2 7-6 9-6v-1c-12 2-31 7-39 6-6 3-13 5-20 6l3-2 10-4 2-1-11 3 9-6 2-1-15 5 4-2 9-6a639 639 0 004-4l-13 5 4-2 10-6 1-1 1-1-12 3 4-2 10-6 4-6c-6 2-13 2-22 2l5-1a22221 22221 0 0021-5l5-8c-7 3-18 5-30 5l4-1a473 473 0 0131-9h-6a172 172 0 01-51 7l6-1a682 682 0 0116-5c-4-1 5-4 15-7h-1l-39 3 5-1a105 105 0 0142-5l13-4-32 1-8-1c-10 1-22 0-35-1l6-1 16-1h9l-1-5-21-1h7l20-3h3-37l28-3a437 437 0 0144-3l2-1c-14 2-32 4-53 2l7-1 18-2 32-3c0-3-5-5-13-8h-1c-10 1-23-1-38-5l-16 1 5-2a90 90 0 0118-3c-10 0-22-1-35-4h19a350 350 0 0112 0c-8 0-17-1-27-4h14c-6-1-12-2-19-5h4l11 1h6l-3-3-13-1 3-1h4l-11-3h12l-3-5-12-3h11c-2-4 0-6 3-8l-11-2h3a72 72 0 0122 1h3l31-10c18-7-13 0-30 2l-6 2c-5 1-12 2-21 0l9-2a90 90 0 015-1h-20l12-3h-14l4-1 11-2 23-4 4-2c-7 2-16 3-27 2h-16a21 21 0 005-1l13-3a1018 1018 0 014-1c-14-4-2-8-2-8s-6-1-13 0 7-4 12-6c2-1 0-2-3-3h-1l-5 2c-5 1-12 1-19-3h8c-5-1-10-2-15-5a3133 3133 0 0011 1l-10-3h13l2-2-16-3h26l3-1c2-2-6-3-14-5l-1 1c-7 1-16 1-27-2l12-1h7l4-3c-6 1-13 1-22-1l4-1 9-1 19-2c-7 0-22-3-31-6-13-5 25-3 25-3l-18-22h-2c-8 4-18 7-30 9l12-6 18-6-2-2c-6 2-15 4-24 4 0 0 8-4 22-7l-1-1-19 4-2 2v-2h-1 1l-1-39s-11 25-21 36l-3 8c-1 8-4 17-9 26v-1l1-5 3-10-6 9 7-18v-1l1-16 1-4c-2 5-4 11-7 15a67 67 0 01-2 18c-1 4-3 8-7 11l1-1 2-4 2-13 1-9c-5-4-7-27-7-27l-1 9a81 81 0 01-6 45l1-5a150 150 0 002-15c-1 8-2 17-6 27l1-6a196 196 0 001-19c-3-5-7-27-7-25v17a72 72 0 010 38v-5a170 170 0 00-2-20c-1 3-2 3-3 2a56 56 0 012 27v-5a114 114 0 00-5-21v13c-1 5-5 1-10-4a65 65 0 010 15l-2 5v-1l1-1-2-3-4-8-2-4-2-1c3 5 4 11 4 18v-1l-1-3-2-4 1 13-4-13-3-11v-1l-12-7a54 54 0 017 16c1 6 2 12 1 19l-1-4-1-4v11l-1-4-2-10-2-1 2 15-2-4a212 212 0 00-4-14h-1c2 5 2 11 1 17v-1a58 58 0 00-2-9 153 153 0 00-8-15l-3-3 1 1a58 58 0 017 33l-1-4v15l-1-5a209 209 0 00-4-19v10c1 6 0 13-1 20v-5l-2-14v-2l-4-4v0c2 7 3 15 2 24l-1-3-2-9-5-20-5-8v2a60 60 0 01-5 49l1-2 1-3v-2l-2 3v-1l1-3v-6l-1-7-1-11v-3l-1 4c1 10 0 22-4 35l1-5v-11c-3 9-6 18-12 27l2-6a194 194 0 006-24c-3 8-8 16-16 23l1-2 3-3a121 121 0 0015-40l-2 6v1a61 61 0 01-29 40l2-1 3-3a85 85 0 0019-31l1-3-1-5a61 61 0 01-8 21l-8 11-3 2-3 2-4 2-3-2 1 1h1l1-1 3-3a100 100 0 0019-46v-7a1058 1058 0 010-1 61 61 0 01-14 40v-2l2-3a110 110 0 009-45c-1 6-2 23-6 27v1c-3 7-7 15-13 22v-2l2-3a103 103 0 008-19l-2-6a80 80 0 01-13 26l2-5a160 160 0 0010-32 65 65 0 01-21 32l1-1 2-3a112 112 0 0019-44l-1 1-1 3-3 12a59 59 0 01-28 32l1-1 2-3a96 96 0 0014-15c-2 2-3 3-5 3s-3 0-3-2c-6 6-13 12-22 17l4-4a181 181 0 0023-24l2-5-12 13c-6 6-14 11-22 16l4-4 12-10c7-7 16-16 22-27l1-2c-1-4-2-5-3-4l-9 13v1c-4 6-9 12-16 18s-17 12-28 14h2a75 75 0 0018-12l16-16a471 471 0 00-41 21l-6 2-4-1-2-2 1 1 3 1 6-2a146 146 0 0015-9h-1l-10-2a57 57 0 01-13 4h-4l-5-1h4l5-2-11-1-12 2s7-4 17-7c-9-5-5-10-5-10l-7-5c-4-2-5-2-15-12h-1l-7-5a28 28 0 01-7-12 20 20 0 012-20l-1 2v1a27 27 0 000 10h2c1 2 2 2 3 2v-6a4210 4210 0 002 4v-1l-1-5 3-5v2a19 19 0 002 9l1-3a709 709 0 003 8c8 5 15 7 15 7l8-4-7-3h-1l-3 1-3-1 8 3h-2l-5 1-7-4-2-4v-4a1103 1103 0 005 5l-1-5c0-4 2-7 4-9v2l-1 1 3-2h3l2-5-4-2c-2-2-3-5-3-8l1 1a53 53 0 008 6v1l2-1-4-3-1-4 1-5a1726 1726 0 002 5 25 25 0 006 7l5-1h-1c-3-1-5-3-6-6s-1-7 1-9v2l1 4 4 5v-3l5-7v1l-1 5v7l3 1h-1l6-1-4-3v-9c1-2 4-5 7-5l-1 1-2 4a13 13 0 001 12h5s-2-7 3-17l2-1-12-3h-1l-7-6c-1-3-1-7 2-9v2l1 4 3 4-1-3c-1-3 0-6 3-9l-1 2 1 5a15 15 0 003 6l6 1v-1a9 9 0 01-3-7c0-3 1-6 3-8v6l1 6c1 2 3 4 5 4l2 1h4s-7-7-5-15 8-11 8-11l-29-4s-5-3 5-8l8-7c8-7 0 0 6-4l8-3c5-1 3 0 9 1s5 3 2 9c-2 6-8 12-8 12l15 1c4 0 3-4 7-6 5-2 7-6 15-5 8 2 8 5 9 18 0 13-10 15-11 17s0 5 2 12 1 18 1 18l21 23 7 3c7 4 29 27 29 27l-9-15c-6-8-7-7-19-16-11-9 1-5 10-4 8 1 26 8 31 10-3-2-8-7-14-10-5-2-4-3 1-5h-25l3-1a39 39 0 0115-3l-6-1-9 2 3-2-7 1 1-1 3-1 5-1a95 95 0 0112-5l15-2 8 3 2 1c7-2 12 0 15 2l-20-14c-4-3-6-4-5-5a73 73 0 00-25 3l3-2a38 38 0 0130-3l5-1c-7-2-16-4-28-3h1l2-1 10-2a36 36 0 0121 6h7c-1-2-3-4-7-6-3-1-7-3-12-3h-18l4-1 10-3c4 0 9 0 15 3l5 4a73 73 0 0121 11l-2-2c-2-3-5-6-9-8-4-3-8-5-13-5h3l3-1-13-7c-6-3-7-4-5-5l-9-3h3a57 57 0 0116 2h9l-6-3-6-2c-2-1-5-2-7-1v-1l3-1 8 1 15 6a85 85 0 005-1l-2-1-12-5-7-4h-8l1-1 2-1c2-1 6 0 10 1l5 2a829 829 0 00-4-4 54 54 0 0120 9h-1l-5-6c-1-2-3-4-6-5h4l7 6 11 11-7-12 2 2a242 242 0 017 7l-6-10 8 8a116 116 0 0114 18l1-1a277 277 0 01-22-29l10 9 9 12-2-5-14-15a37 37 0 009 5l-25-21 4 2a77 77 0 0118 12c-6-14-20-23-12-19 10 3 22 12 30 22 3 2 4 3 4 1a205 205 0 01-24-24l10 7a125 125 0 018 7c-7-8-17-18-29-26a54 54 0 0014 7l13 11-4-9c-2-7-6-11-8-13 9 3 36 14 47 14l-9-3a1708 1708 0 007 2 80 80 0 0032-1 126 126 0 01-48-10 57392 57392 0 0025 5l37 2a572 572 0 0059-28 207 207 0 0021-24c-4-4-14-4-33 4-43 20-100-35-118-54-5-4-9-12-13-21l-16 7a190 190 0 00-25 15h1l-2 1 4-5a195 195 0 0135-28c-2-12-3-25 0-39-1-7 0-18 4-27v12l1-2 1-3c5-11 12-20 21-29 45-42 64-32 64-32l4-13c-1-2-3-4-3-7a42 42 0 005 4l1-2 1-7v1l2 3h2l-1-5c0-2 0-5 2-7v1a76 76 0 003 12l2 2-1-4a36 36 0 012-18v2l1 7v5l1 5 1 5c1 2 2 4 5 5h-3l7 9-2-8-1-1c-2-1-4-4-5-9V53c1-5 2-10 5-15l-1 8c5-12 19-18 20-25 1-8-12-10-16-15-5-5 30 8 40 13 10 4 22 36 22 36l30 37c14 19 40 88 40 88l-9 5 15 9a30 30 0 0119-3h-2 10l-2 1a133 133 0 00-14 5h7c4-2 10-3 16-3l-7 4h2a23 23 0 0114-1h-2a9871 9871 0 00-1 3c3-2 7-2 11-2l-2 1-3 2 2 1 5 1h4l-2 1 3 2 8-1-2 1-3 2 1 2 12-3-8 5-2 2v2c4-2 9-4 15-4l-2 1-6 3-6 4 1 1 2 2c4-3 9-6 16-6l-2 1a101 101 0 01-10 6l3 1c3-2 7-5 12-5l-5 4-2 2h1c2-2 6-3 10-4l-5 5h3l7-3-4 5h1l7-2-1 1a172 172 0 01-3 3l-1 1a133 133 0 01-3 3c2-2 5-3 8-3l-4 4-5 5c-1 3-2 5 1 3 3-3 8-8 16-12l-10 12h2l11-11s-2 6-7 12c2-3 6-7 12-9l-5 7 5-3-3 5-2 2h1l9-6-5 7 3 1c2 0 2 1 3 5 4-3 10-5 17-7l-3 2-7 5-7 4 1 4c4-4 11-9 19-11l-2 2-6 5-1 1 11-5-2 2-6 5a475 475 0 01-3 2l10-5-2 3 6-1c12 1 8 7 14 8h11a20 20 0 0114 2h-2a88 88 0 00-12 2h3l5 1 7 4h-5l-1 4-6 6 8 3h1a46 46 0 0131 8l-4-1a110 110 0 00-16-3l13 6c5 2 11 5 17 11l-3-1-3-1 5 6-2-1a207 207 0 00-11-5h1c4 2 9 5 13 11l-4-1 3 3-7-3h-1l-5 1h1c6 2 14 7 21 15l-3-2a372 372 0 012 3l-5-2 3 2s-6 0-14-3l9 6h-1c2 1 3 1 5 4l-1-3 2 1 4 5c3 3 7 10 9 18l-2-2-4-5v1c3 4 5 9 5 16l-5-8v-1c2 5 3 11 3 18l-4-9a499 499 0 00-2-2l-1 3a38 38 0 013 6v2l1 1v2l-2 1h1v-2l-2-2a101 101 0 01-4-5l-1 2c-2 4 1 7 0 16l-2 9a42 42 0 0122 23l-3-3a208 208 0 00-18-16l1 3 11 7 6 6 2 4 1 5-1-1-1-3-6-6-8-5 1 2v1c4 2 10 7 13 14l-7-5-2-2-1 3c3 3 6 6 8 11l-6-5-5-4-2 2a19 19 0 018 10l-6-5-5-3-5 4c-9 9 4 3 10 8 3 3 4 4 4 6 3 2 7 5 10 10l-5-3 6 9-7-4-5-4 11 12-9-5 3 5-5-3v1l-4 10a174 174 0 005 31l13 19-3-2-7-7zM142 174l1 2a365 365 0 00-2-27v-3a35 35 0 001 28zm-5-5l2 1-1-1v-1-4-6a457 457 0 000-21 43 43 0 00-1 32zm-4-26l1-7v-3c-4 6-5 14-5 20s1 11 3 14l2-1 1-1-2 1v-23zm-7 3l1 2a92 92 0 015-24v-1c-3 2-5 5-6 8a22 22 0 000 15zm36 113c6 2 9-4 9-4-7-2-9 4-9 4zm3-12l-3 2c3 2 6 2 7 1 2-1 2-3 2-3h-6zm-13-8c2 3 6 4 8 4l5-1-2-1h1a19 19 0 007-1l-12-4 6 1h2l1-1a46 46 0 01-24-12l-5-5-2-3a25 25 0 007 13c4 3 8 6 12 7h0l-6-1 5 4h-3zm-10-23a30 30 0 0025 15h3l1-1a55 55 0 01-30-19l-2-3 3 8zm5 0c3 3 7 6 11 7l8 2h4a47 47 0 01-23-14 54 54 0 01-7-8 25 25 0 007 13zm-6-27a21 21 0 006 14l11 7 9 1 3-1h1c-5-1-9-3-13-6a46 46 0 01-13-13l-2-2 2 6-2-3-2-3zm6-4a28 28 0 0019 17l2 1h1l-4-3 9 3c9 2 22 2 10 7-10 3-17 8-17 10a68 68 0 01-24-17l-1-2c1 4 3 8 7 12a31 31 0 0018 8h4-1c7 0 7 5 10 0 4-4 12 50 12 50l11 24 1 22s10-17 15-17l13-1s-6 0-1-5l11-12c4-5-5-9-8-14-2-4-2-8-5-12-3-3-4-2-5-2 0 1 0 1 0 0l1-3c4-10 4-10 4-14 0-3 1-2-2-9l-5-17c-3-5-5-9-6-15l-1-14v-8c1-4 4-5 4-9 0-5 2-3 2-8 0-6 2-6 2-11 0-4 4-8 4-8l14-17s27-20 35-23l26-13s36-18 47-27c12-9 13-11 18-16 4-6 6-5 10-10l10-6s7-2 6-7c-1-6-4-6-14-5-9 1 2 0-19 7l-21 7-16-14 7 20-61 33-57 30-36 23 3 13 13 11s-26 5-36 16c-7 8-12 12-11 19l2 6zm121-47v-3a63 63 0 00-4 43l1 4 2-34 1-10zm-3-1v-4l-4 13v-1l2-10 1-4a75 75 0 00-10 44l1 3 1 1-1-2v-3l1-5 2-9a489 489 0 010 2l2 19 2-1h-2c1-14 2-25 4-33l1-10zm-3-10l1-4-8 15a55 55 0 00-3 29 178 178 0 0110-40zm41 200h1a119 119 0 01-43-29l-3-3a57 57 0 0023 25 93 93 0 0073 18l6-1h2a137 137 0 01-63-10h4zm-57-30l17 17 17 11c6 3 11 5 14 5l4 1 1 1c-8-4-16-8-22-13l-16-11a621 621 0 00-15-11zM52 395l1 1a18 18 0 0011 6h2l-12-9-2-4v-1l-1 2v2l1 3zm211-65l1 1c-4-4-6-3-1-1zm-39-76z" fill="#aba6a4"/><path d="M745 480c-1-2-2-4-1-6l1 6zm-16-58l-1-1h4l-3 1zm-5-25v-1h3l-3 1zm-23 107a246 246 0 010-1v1zm-6-53v-1 1zm-6-155l-3-1h4l-1 1zm-5-4h1-1zm-151 19l1 1-1-1zm-16 12a144 144 0 01-6-6l6 6zm-7-1v-1l1 1h-1zm167 309zm-180 12zm2 50h-1 1zm20 37h2l-3 3 1-3zm16 26l6-18v4a330 330 0 00-6 15v-1zM433 560l-3 1 4-3-1 2zm-12-36h-2a74 74 0 0014-10h1zm9-10h1l-3 1 2-1zm3-451a191 191 0 00-2-1l2 1zm-38 21a121 121 0 01-1-7l1 5v2zm-30 345l3 2v2l-3-4zm-2 1l1-1v2l-1-1zm-122 2l5 5v1l-5-6zm-12 18l-3-3 4 2-1 1zm-4 0l-2-1 2 2v-1zM88 430h-7l-4-1a214 214 0 0011 1zm-5 32l-3 1 3-2 3-1-3 2zm-4-22l-1-1a1618 1618 0 001 1zm632-134h-1 1zm38 162l2 8-3-7 1-1zm3-3l1 5-2-3 1-2zm-5 5a89 89 0 0014 37l-3-10 4 7a292 292 0 00-2-11c-1-16-6-26-7-28l-3-4h-1v-1c-8-4-19-6-18-11l3-3 10-3 5-2h2l-10-1 3-4 4-3-5-1v-1h2l7-3h-11l-6-3h-1a120 120 0 0016-2l-11-2a112 112 0 0011-1 32 32 0 00-23 0l1-5a107 107 0 0019 1h2c-6-3-12-4-16-4l3-1h6l9-1-14-3-1-4a100 100 0 0012 0h2a28 28 0 00-20-3l-3-1h18c-4-3-8-3-12-4h5l7-1h3c-5-2-9-2-12-2l2-1 8-1c-4-2-8-2-12-2l2-1a130 130 0 0011-1h2l-9-3h2l6-2-6-1-1-2-4-4 6-1-12-2-5-2h3l10-1c-7-3-13-3-19-3l-1-2 15 2 11 3c-8-6-17-8-23-8l5-2a189 189 0 0019 2l-13-5 4-2h3l8 1-8-4 1-1 13 2-11-5-1-1 6 1-9-4c-1-2-3-3-6-4-13-8-26-8-32-9l-3-2a184 184 0 0120 2 43 43 0 00-20-6l1-1 13 2h11c-8-3-15-5-21-5l4-3 9 1 7 1h3l-7-3h2l8 1 3 1c-7-4-13-6-19-7v-1a40 40 0 0020-1 142 142 0 00-1 0c-5-3-11-5-16-6l4-1-13-1-3-1h1l8-1h3l-18-3h5l11-2-13-2h6c-3-2-7-2-10-3l12-5c-9 1-16 3-21 5l2-7 8-2 7-2 3-1h-11l7-3-18 2-3 1-8 1 8-4 8-3 3-2c-12 1-21 5-27 9l-1 1h-2l-2-1a267 267 0 0026-14 55 55 0 00-28 13l-1-3 8-5 6-4 2-2c-8 1-14 5-19 9l-1-2 8-7-11 5-2-1c-5-1-7-9-15-7l1-1 2-4c-4 1-6 4-8 6l-2-1a75 75 0 0010-14l1-1a25 25 0 00-13 14l-1-2 5-7 3-6c-4 2-7 6-9 9l-2-2 1-1a139 139 0 005-7c-4 2-8 5-10 8l-3 1 9-9c-7 3-13 7-17 11-6 0-12-3-16-6 4-5 4-11 4-11-4 3-5 6-6 9l-2-2-1-1 2-3 1-4c-3 1-5 3-6 5h-1l3-8c-3 2-5 4-6 7l-2-1 3-9-8 9-2 1h-4c3-3 6-6 7-9l4-6a32 32 0 00-13 13l-2-3a76 76 0 0011-15l2-2a29 29 0 00-14 15l-4-4a82 82 0 0012-16l2-2a32 32 0 00-15 17l-4-3 9-11 5-7 2-3c-9 6-15 14-18 19l-3-2 5-6 5-6 1-2c-7 3-11 8-14 13l-1-1 4-5 5-5 1-2c-6 2-11 7-14 11h-3a97 97 0 0110-11l3-3a49 49 0 00-23 22c-3 4-6 6-8 2-3-7-3-9-8-16-2-2-2-5-2-6l1-2 4-5-7 4-2-1 1-2 4-4 2-2c-6 2-10 5-12 8h-1a141 141 0 005-7l2-2c-6 2-10 6-13 10l-4 1 8-10 7-7a34 34 0 00-19 19h-2l9-13 4-5 2-2a29 29 0 00-16 19l-4-4a139 139 0 0014-21 52 52 0 00-16 19l-2-1 7-9 4-6 2-2c-8 4-12 10-15 15v-1l3-4a161 161 0 015-7 22 22 0 00-11 9l1-19s-17 13-23 13h-3l20-28-20-49 28 37 37 29-8-24a789 789 0 00-23-41l4 3a89 89 0 00-32-32l-10-10a74 74 0 0012 7 393 393 0 0119 16 87 87 0 00-39-34l-6-5c-3-3-14-13-17-12-4 1-9 6-11 17v-4-3l-3 15a136 136 0 011-20l-2 3a84 84 0 013-8c-3 3-6 7-7 11a28 28 0 001 19l1 2v-3a40 40 0 004 13l-2 4c-11 1-16-2-16-2s-6-16-35 24c-9 13-16 26-20 37l-2 3v-5l-4 9a875 875 0 001-8v-3a32 32 0 00-4 27l1 3 1-13v1l1 5c-4 15-4 26-4 28l12 44 25 46c4 6-8 46-8 46-2 1-16 5-19 9h-1l-15 2a134 134 0 0019 1l5 2-17 1-15 3a256 256 0 0041-2l5 2a209 209 0 00-36 7 243 243 0 0042-5c6 3 10 6 8 10-4 8-47 11-47 11s-26-25-22-17l3 4 14 31-5-3a162 162 0 00-13-22l-3-4 9 19-7-6-3-4-3-4a784 784 0 011 9l4 11a145 145 0 00-9-14l10 25 1 1a143 143 0 00-12-19l-3-4 15 34-2-1a163 163 0 00-11-21l-3-4a808 808 0 007 21 145 145 0 00-13-21l-3-4 10 22-5-3a87 87 0 00-14-14l9 12c-4-1-6 0-5 4l1 1a187 187 0 00-13-12l16 21 1 2a76 76 0 00-13-10l-3-3 17 21-1 2-4-5-3-2 4 8c-5 0-16-6-18-3a66 66 0 00-19-10l-4-1 24 17 2 4a54 54 0 00-16-10l-3-1 6 5-1-1c3 6 7 11 11 15l-1-1-6-5 1 3-11-2-6-1h-2l6 4 2 2 6 8-14-9-9-4 7 6-7-2 8 7a74 74 0 00-14-7c6 6 11 9 16 12h-3l-6-3-9-4c7 6 14 12 20 15l2 1 7 8a271 271 0 00-27-20 66 66 0 0027 22h-2c-4-2-36-16-37-11v2c2 1 3 2 3 4l-7-5-4-2 21 20-6 2a57 57 0 00-10-9l6 9h-2l-6-5-2-2 4 8-3 1a71 71 0 00-13-11 755 755 0 008 12l-3-1-6-9-2-3 2 9-1-2-2-4v3l-6-5-1-3-2-3 1 4-2 1h-1l-2-7-2-3 1 7-1-1-3-9-2-3a711 711 0 000 8 71 71 0 00-3-11 562 562 0 00-1 8l-1-6-1 5-4-1a39 39 0 00-3-6l1 7c-6 1-9-4-10-11-1-8 4-13 3-23-1-11 3-9-4-16s-10-18-10-18l-4 12c-2 4 2 3 2 7l-3-5-1-2 1 18v3l-3 2a24 24 0 003-6l-8 8c-3 2-7 1-10 1l-20-1a60 60 0 00-18 3l-1 1h21l2 1a14 14 0 00-6-1h-1l1 1-5-1h-2a94 94 0 0117 13l-4 10s-9 5-5 7a107 107 0 00-13 7c7-1 13-3 17-6l5 1-12 7a30298 30298 0 00-5 5l-3 1 11-2-6 5-3 2c13-5 22-11 28-17l2-1-1 2a333 333 0 00-24 17l7-2h-1c6-1 10-3 14-5-1 3-1 5 2 6l2 1-3 2-7 7-3 2 17-10 6 1a123 123 0 01-14 12l-3 3 11-6v1l-2 2c8-4 15-11 19-16l4-2v1l-5 9 11-12a84 84 0 00-5 12c5-4 9-10 11-14l3-1-8 11-3 7a30 30 0 0013-19l4 5 1 5v3l1-7 3 2 2 12 1-9 1 2 1 10a8493 8493 0 002-6c3 5 4 11 4 11l6 2v1l1 4v-4c2 0 3-1 4-3v-6l1 5 3 16v-22 1l7 10 4 9-1-7h3l4 9-2-10 2-1c3 7 6 10 6 10l-4-10 4-2 7 9-4-10h2l6 8-4-9 3-2 6 7 2 3-5-11 2-1 4 4-3-6 2-2 3-6a281 281 0 019 10l-7-12 1-2 8 7 3 2-7-9 10 6-9-10 2-1h1l6 4-4-5 3-2 6-3 1 1-1-1 2-1 4 5 4 5 1 1c-1-6-4-10-7-14l2-1a185 185 0 008 10l1 2c-1-6-4-11-7-15l1-1 1-1a189 189 0 0010 17c-1-8-4-14-8-19h1a210 210 0 0010 15c-1-7-3-12-6-16l2-1 1 1 5 7-3-9 1-1 3 4-1-6 2-2 1 2-1-3 2-2 1 1 5 10-3-13 2-2 5 10-2-10 4 6 1 3c0-5-2-11-4-15l2-3 4 7 3 4-5-14 8 14 2 4v2c-1-9-4-16-7-23l2-2a196 196 0 017 18l-4-19 2 1 1 2a44555 44555 0 014 3l3 3 3 7 2 5-2-10h2l2 6 3 9 1 4-2-19 1-1a3134 3134 0 011-2l1 2a23843 23843 0 012 7l2-9v2l1 4 1-13v2l1 3 1-6 2 4-2-6 1-2 1 5v-2l2 6v-15l1 1 2 5-2-8a95 95 0 0025 11c-11 3-19 8-19 8 11-1 19-4 25-6l7 1-12 4-6 4a54 54 0 0021-7v1a44 44 0 00-14 10l16-6 4 6 5 7c1 5 2 11 7 14l2 1a1022 1022 0 00-10 8l-2 1c6-1 12-4 16-7l4 3c-8 4-13 9-13 9l17-7 4 2-10 3-4 2-2 1a21 21 0 0018-5l1 1-8 4-8 5c9-1 15-4 19-7l1 1a176 176 0 00-20 9l-2 2a54 54 0 0024-9l1 1v2l-24 10-9 3-3 1a63 63 0 0034-12l-6 6a131 131 0 00-20 9l-3 1 13-2-1 1-6 3-10 4c6 0 12-1 16-3l3 1-8 3-9 5a62 62 0 0025-8l7-1a362 362 0 00-22 13l-3 2c9-2 17-6 22-9l-4 4a202 202 0 00-18 9c5 0 10-1 14-3l-6 4-3 1c6 0 12-2 16-4h4l-6 3-3 2c6-1 10-3 14-5h2l-6 4a55 55 0 01-10 6h-1l8-1 9-3-4 4 7-2-8 6 6-2-5 3 6-1c12 6-7 14 2 13s16 1 22-1c5-3-7 8-5 8h1l-18 7a7902 7902 0 01-11 4 59 59 0 0031-9v4a130 130 0 00-24 8l-2 1h5l-2 1c9 0 16-1 20-4h2l-1 1-10 3-8 4h5l-7 2-2 1c8 1 16-1 22-3v1l-18 6-9 2-4 2c8 0 14-1 20-3l2 2-10 4 14-1 3 1c-11 3-17 7-17 7l21-4 2 1a100 100 0 00-10 5l14-2h1l-4 2-7 3 15-2 25 21c-24 4-43 11-43 11 20-2 36-6 45-8l3 3a167 167 0 00-48 10l-5 2a783 783 0 0025-3l-11 3-5 2 11-1c-6 1-10 3-5 3h1l-2 1h4c8 1 15 6 24 5 8-1 19-3 21-1l-2 3-2 2 3-2-2 2-7 7a67 67 0 00-18 17c4-1 7-4 10-6l-1 1a294 294 0 00-10 10l-2 3 13-8-2 2-8 9 15-10h1l-4 4-6 5-2 3 5-3-4 3-3 2c6-1 11-4 15-7l-3 3-7 8a55 55 0 0024-23l-5 4 2-2 11-7v1a280 280 0 00-20 31l-2 3 6-6c-1 5-1 9 3 7l-2 4 6-6 6-3a180 180 0 00-10 18c4-3 8-7 10-11a336 336 0 00-8 14l-1 3a62 62 0 0018-26v2l-6 14-4 5-4 7-2 3 2-2-1 2-6 7-3 3c6-3 10-6 14-10 1 1 5 1 7-2l9-9a208 208 0 01-20 22l-3 2a58 58 0 0026-22v-1l-2 6a378 378 0 01-16 21l-3 3a66 66 0 0012-9l4-1a162 162 0 01-13 14l3-2-1 1c10-3 16-10 20-15h1a332 332 0 01-18 21l-3 3c6-3 10-6 14-10l5-3-2 4a545 545 0 01-16 13l-3 3c6-2 10-5 14-8l-1 2c-7 7-11 14-11 14l6-4-2 3 2 3-4 3-2 3 8-5 3 2-1 2-2 3 6-4 7-1-2 4 7-6-4 10c5-6 9-12 11-17l2-2-3 6-2 7c5-4 7-9 8-12v1l2-1-1 2-1 4a86 86 0 0013-42l1-8-1-8-4 14v-5l1-7-2 2v-2l3-10v-7c-3 4-4 8-5 11v-2c3-8 2-16 2-16-3 4-4 8-5 11l-1-3 2-7v-6c-3 3-4 7-5 10h-1c4-10 4-20 4-20l-3 7 1-9c-4 7-6 14-7 19l-2-1 4-12 2-9c-5 7-7 13-8 18v1l-1-2 5-14 1-8-3 4v-4l-6 14v-3l4-12 2-9c-4 5-6 11-8 15v-2l-1-3a84 84 0 002-10l-3 4-1-6-3-4v-1l-1 1-2 1-3 1c8-7 13-14 13-14l-6 3 5-7c-8 6-14 12-17 17l-2-3 11-10 6-6 3-3-8 4 7-5 3-3-9 4-11 5 1-2 16-9-16 5 1-1a291 291 0 0019-9l-10 2 1-1 9-3 3-1-12 1h-2l14-11c6-5 11-8 16-10l-4 12 9-13-3 10 7-10-4 14 8-14 2 1-2 4-4 11c4-5 7-9 9-14l1 1-2 5-3 12 8-15 1 1-3 10 5-8 3 3 1 1-1 4 2-3 4 3-11 11 13-9 4 2a256 256 0 00-8 6l12-5 2 1-4 2-8 6c7-2 13-5 18-8a274 274 0 00-13 9l-3 2c6-1 11-3 15-6l-8 6 10-4v2l-5 3c-7 3-10 6-10 6l15-5-1 2-7 4 7-1 2 1-11 5 14-3-7 4 18-5h3l-17 9c11-2 19-5 25-8h5c-9 2-17 8-21 11-7 2-10 5-2 7l13 4-2 1 4-1h10l-2 2-5 3-2 2 9-3-3 4 13-8v1l-6 4-6 6c7-2 13-6 16-9l1 1-9 7c-6-1-7 5-7 5h2l-1 1 7-3-5 4-4 3-7 5-3 2 8-3-3 4 3-1c-1 2 0 3 2 4 6 1 17 7 26 4 10-2 14-6 22-14 8-9 13-12 15-20 3-9 6-28-1-22-2 2-3 3-5 3 4-14 3-24 3-24l-2 5 2-25-3 8v-4l-1-12-3 19-1-5-1 11v-1c3-20 0-33 0-33-2 8-3 17-2 24l-1-2-1-6c2-13 0-22 0-22-2 5-3 11-3 16-1-1-2-1-4 1l2-16v-11c-3 10-5 19-5 27v1l-1-8c0-4 0-8-4-17 2-7 1-11 1-11l-2 5v-12l-3 6a76 76 0 002-13l-3 5 1-3v-9l-5 14-1-3a210 210 0 002-11v-3l-5 9a81 81 0 002-10l-5 7-1-1a100 100 0 002-10l1-2c-3 3-5 6-6 10v-1a62 62 0 002-8l-4 4v-1l2-7c-4 3-6 7-7 10h-1a54 54 0 004-13c-4 4-6 8-7 12l-4-1a98 98 0 004-12l1-2c-4 3-6 7-8 10l-1-5 2-10-2 4-2-3 1-6-3 3c0-7-2-12-2-12l-2 7v1c0-11-3-19-3-19-2 9-1 17 0 23l-3-1v-4-13l-1-8a41 41 0 00-2 23l-2-3c2-13 0-21 0-21l-3 15v-17c-2 4-3 7-3 11l-1-1v-8l-2 4-1-3v-7l-2 4a262 262 0 00-2-4l4-14-6 10-2-4a49 49 0 007-14l-3 3 1-3-8 9-2-2 3-3c3-3 8-8 8-12 0-7-3-14-7-19l-10-14-1-1c6-9 8-18 8-18l-11 16-1-2 6-9 5-10-13 16-1-1c7-8 10-17 10-17-6 5-9 9-12 13 7-8 9-16 9-16l-10 11v-1a82 82 0 0010-18c-5 4-9 9-11 13v-1l6-11-5 4-1-2 1-1c4-5 5-9 5-9l-9 8h-2l6-9-11 8h-2c9-8 14-15 14-15-8 5-14 10-19 15h-5c14-11 23-21 23-21-13 7-22 15-28 21l-1-2a131 131 0 0018-17c-8 4-13 8-18 12l4-7 3-4 5-5-1 1 8-8-1-1 2-1a667 667 0 00-4 0l-6-2h-9l-10-3h-1l-3-4a41 41 0 0022 6l2-1h1c-12-2-21-7-27-11h-1l-1-2a52 52 0 0022 10h4l-6-2h2a120 120 0 01-13-10 38 38 0 0010 6l-17-17 1-1a36 36 0 0011 12l2 3 9 6 3 1h1c-3-1-5-4-7-6l1 1 3 1-9-8-1-1a470 470 0 013 0l6 5 2 2-13-19h3l2 3a72 72 0 0022 22 313 313 0 011-2l2 2h1a126 126 0 01-4-4l3 2-13-20v1h3a52 52 0 0016 20l-11-18 3 1a45 45 0 0011 15l-6-13h1a45 45 0 009 10l3 2-7-11h1a56 56 0 009 13l-5-13h1a52 52 0 006 13v-1l1 3 2 2-3-19a64 64 0 004 17l1 3-1-22 3-1 3 16v-18l7 1-1 6a21 21 0 006 14l-3-16v-4l1 1v1a25 25 0 005 17l1 2h1c-3-7-3-14-4-19l3 1a25 25 0 005 15l1 2-3-14h1a29 29 0 007 17l-1-5a17 17 0 004 5l-3-13 2 1a26 26 0 004 12 1111 1111 0 003 0l1 3 1-11h2a46 46 0 001 15l2-14 2 1v1a37 37 0 002 10 785 785 0 002-6l1 7v3l2-13h1a38 38 0 000 11l1 2 2-11a47 47 0 002 11l1 3 1-10 1 3 2 6v1h1c1 5 3 11 9 12h4v1l-4 8a9 9 0 000 3l4-7 4-5h4a39 39 0 00-5 14l-1 2 11-17h1a51 51 0 00-11 21v3a460 460 0 0015-24h1a51 51 0 00-12 25l-1 3 3-6-1 10-1 1h1l2-1v-1l-1 1a255 255 0 0011-29l1-3c1 1 0 3-2 10-3 7-4 13-5 18v2c-3 8-3 13-3 13a318 318 0 004-5 55 55 0 00-2 11 986 986 0 006-9l-4 12 7-12h4l-4 9-2 10 10-18-1 3-4 10a31 31 0 00-8 12 32 32 0 00-3 9l10-14-1 2 1-2v5a35 35 0 00-7 14l-1 3 7-10-1 7a60 60 0 00-4 12v3a545 545 0 004-3l-2 8 1 2 1 1-1-2 1-1 1-3 3-7a325 325 0 003-2l-5 15-1 1h1l1-1v-1a94 94 0 004-5l-1 6 7-10h1a46 46 0 00-5 14c3-3 5-6 6-10v3c-2 7-5 11-5 18 0 5 1 11 3 16v25l-2-8-1-7v1l2 2 1 1a65 65 0 01-2-41l1-3a34 34 0 00-7 16 39 39 0 003 21 69 69 0 0013 43l-1-4 4 9-6-25v-7a30 30 0 006 8 30 30 0 004 3 2422 2422 0 005 4l2 2-7-13 1 1a31 31 0 007 7 219 219 0 01-4-11 32 32 0 007 7l-6-12 1 1 5 6 2 1a1032 1032 0 00-4-10 24 24 0 007 6l-1-1a39 39 0 005 6 381 381 0 00-3-12l5 5 2 2-6-11h3l1 1a47 47 0 006 8l-3-9h2a50 50 0 003 4 245 245 0 000-6 50 50 0 005 8 3415 3415 0 00-2-13 71 71 0 007 11l2 3a968 968 0 00-5-16 57 57 0 007 10 571 571 0 00-13-34l1-1 2-2z" fill="#827b78"/><path d="M477 100a145 145 0 019 14 63 63 0 00-30-39l-4-2c10 9 19 19 25 27M163 190h-1l-2-2c2 5 7 8 12 10s10 2 14 2a61 61 0 0011-1 61 61 0 008 6l2 6 15 33 6-8s-24-55-2-101c0 0-53 14-58 30-4 14 5 18 16 22-4 0-7-1-9-3l-7-5-4-4-1-1 4 8-1-1c-3-1-4-3-5-4l-2-2a18 18 0 007 11c3 2 6 4 9 4h11l-6-2h2l2-1 8 6 4 5-14-1 2-1h3a71 71 0 01-31-14l7 8M301 174v2c1 2 3 2 3 2l-1-2v-3a115 115 0 002-14v-8a30 30 0 00-4 23" fill="#827b78"/><path d="M306 176l1 3 1-6 1 2 2-20v-9-1-3a45 45 0 00-5 34" fill="#827b78"/><path d="M248 241s-13 3-14 8 1 15 7 23 13 1 14 5c1 3 18 25 40 35 22 11 38 14 57 14 18 0 43-3 56-14 13-10 30-35 31-46 1-10 1-28-1-39-2-10-7-22-7-26 0-5 5-13 5-13s3-6-3-14c-5-8 0-8-10-8h-16c-3 0-2-1-8 1-6 3-45 14-76 28s-75 46-75 46" fill="#2e2e2e"/><path d="M418 209c-2-10-7-22-7-27 0-4 5-12 5-12l1-3h-11c-3 0-2-1-8 1-5 3-44 14-75 28s-75 46-75 46-13 4-14 8v7l2 1c0 2 6 11 15 19l4 1 3 5c6 4 11 8 18 11 22 11 38 14 56 14s44-3 56-14c13-10 30-36 31-46s1-29-1-39" fill="#191919"/><path d="M353 312c-50 0-90-29-93-66v5c0 39 37 71 83 71 23 0 43-8 58-20-14 7-31 10-48 10" fill="#aba6a4"/><path d="M419 223c-1 43-28 77-61 79h4c35 1 64-31 65-71 0-19-6-37-17-50 6 12 9 27 9 42" fill="#aba6a4"/><path d="M292 247c3 5 2 11-2 14s-11 2-14-3-2-11 2-14 11-2 14 3M405 229c-1 6-4 10-6 10-3 0-5-5-4-12 1-6 4-10 6-10 3 0 5 5 4 12" fill="#2b2b2b"/><path d="M390 217c0 3-2 5-3 5l-2-6c0-3 2-5 3-5l2 6M278 243c2 4 1 8-2 10-2 2-6 1-9-2-2-4-1-8 2-10 2-2 6-1 9 2" fill="#838383"/><path d="M482 383c4 9-3 22-16 27-13 6-26 3-31-7-4-9 3-22 16-27 13-6 26-3 31 7M405 351l8 17 10-5-8-16zM421 344l8 17 10-5-8-16zM435 336l8 17 10-5-8-16zM452 328l8 17 10-5-8-16z" fill="#1c1c1b"/><path d="M263 104l-5 3a106 106 0 00-38 55v-2l1-4a79 79 0 0120-36 87 87 0 0122-16" fill="#303030"/><path d="M225 148l-1 1-2 5-3 17c-1 15-1 37 6 61l-1-2a117 117 0 01-6-24 136 136 0 011-43c1-5 3-11 6-15" fill="#303030"/><path d="M222 224l3 4 4 12-3-5-4-11M233 237l2-2 5-3-1 3-6 2" fill="#303030"/><path d="M236 235h1l2-2 10-6 15-11 21-12 26-15 32-15c11-6 23-11 37-14 13-3 28-5 43-3h-5a103 103 0 00-33 3l-24 9c-18 7-38 18-59 29-11 5-22 10-33 17s-21 15-33 20" fill="#303030"/><path d="M247 243l3-2a379 379 0 0138-26 518 518 0 0180-40c11-4 23-7 36-9l-4 1a188 188 0 00-48 17 800 800 0 00-105 59" fill="#303030"/><path d="M400 166h1a4 4 0 012 2v1l1-1h2a98 98 0 0119-3l-7 2a94 94 0 01-11 2l-2 1h-3v-2l-2-2" fill="#303030"/><path d="M419 167h1l3-1h4l3 1h2v-2l-2-3-5-8a95 95 0 008 11 6 6 0 011 3l-1 2-4-2-3-1h-7" fill="#303030"/><path d="M417 137l5 8 4 10 7 11-2-2a51 51 0 01-10-15l-4-12M358 91l-4-1-10-4h5c3 0 6 2 9 5M251 111l1-1 5-4a117 117 0 0146-21c12-3 26-4 40-2h-8a142 142 0 00-69 18l-15 10" fill="#303030"/><path d="M326 83l2-1 7-1c6 0 15 1 24 4l-10-1-11-1-6-1-6 1M260 234l-1 1a44 44 0 01-13 9l-5 2-4 4v6l6 12 4 6 3 2 4 1 3 2 3 3 6 7-5-5-3-2-3-3-2-1h-2c-2 0-4-2-5-3l-4-5-3-6-3-6-1-7 2-4 3-2 7-3 13-8M432 167l1 1 1 3 3 4 1 3 2 4-1 5c0 2-2 3-3 4l-3 3-1 4c0 4 2 7 3 11l2 5 1 7v-1l-1-4-3-5-4-7c-1-3-2-6 0-10 0-2 2-3 3-5l3-3 1-4-2-5-1-5-1-3-1-2" fill="#303030"/><path d="M436 213v2l3 5 4 19a78 78 0 01-25 63l1-2c1-1 3-2 4-5 3-4 7-10 10-18a102 102 0 003-64" fill="#303030"/><path d="M259 283l3 3a135 135 0 0023 20l23 11a71 71 0 0030 8c11 1 23 1 36-2 13-2 26-7 37-16s20-22 24-37v1l-1 4a70 70 0 01-18 30c-5 6-13 12-22 16-10 4-21 7-33 8-11 0-24 0-36-3-7-1-13-3-19-6l-17-10c-12-6-22-16-30-27M229 238v4l-4 4-1 2 1 3 9 16 5 9 4 4 6 1h-5l-5-3-4-6-9-16-2-4-1-3 1-3 4-3 1-2v-3" fill="#303030"/><path d="M244 280l-6 6a136 136 0 01-8 8v2l1 3 1 3v-1l-1-1-2-3-1-4 1-2 2-2a120 120 0 0113-9" fill="#303030"/><path d="M230 298l-3 1-4 1-6 2c-3 1-6 5-9 10l-10 17 6-14 3-7 6-6 4-2 4-1 9-1" fill="#303030"/><path d="M202 321v2l-1 5-7 19-15 26c-7 9-14 20-19 33l1-2 1-6c2-5 5-12 10-19l16-26 8-15c3-6 5-11 6-17" fill="#303030"/><path d="M163 398l-1 3-4 8-9 10-13 9 2-2 7-7 4-4 5-5 9-12M20 418l-1 1v3c0 3 0 8 2 13l5 7 7 7c6 4 15 7 23 4h-1l-4 1a23 23 0 01-22-6l-7-8-4-11c0-3 0-7 2-11" fill="#303030"/><path d="M47 451a129 129 0 0012 3c3 0 5 0 8-2 3-1 6-3 7-7 1-3 0-8-4-10-3-3-8-4-13-5a91 91 0 00-11-2l-4 1 1-1h5c4 0 10 0 17 2 3 1 7 3 10 7 2 4 2 9-1 13s-9 5-13 5c-5 0-10-2-14-4M46 428h-4l1-1 5-3 8-1c7 0 15 0 24 2h-3a175 175 0 00-27 1c-3 0-5 0-7 2v-1l3 1M73 423h5c3 1 8 2 13 1l9-2 7-8v-6c0-2-1-3-3-4-3-3-8-4-13-4h2a25 25 0 0110 2l4 2 2 4c0 4-1 7-3 10s-5 6-9 7l-12 1-12-3" fill="#303030"/><path d="M55 396h-2v-1h7l11 2 32 6-16-1-15-3-18-3v-1l1 1M95 400h6c2 0 5-1 7-3 2-1 4-4 4-8 1-3 0-8-3-11s-7-4-12-5l-16-2-8-1c-3 0-6 0-9 2v-1h2l5-2 19 1 12 2 7 3 4 7 1 8-4 7c-4 4-10 5-15 3M19 424l-1-4-1-11c0-5 2-11 6-17l16-15-3 3-9 9c-3 4-6 9-8 15v20" fill="#303030"/><path d="M30 385l1-2a64 64 0 0128-26l18-10 11-5a24 24 0 0120 3l2 3 1 4c0 2 0 5-2 7l-5 5c-4 3-9 5-14 6a40 40 0 01-12 1l9-1c4-1 9-2 13-5a24 24 0 008-7l1-2v-5c0-1 0-3-2-4l-4-2c-3-2-7-2-11-2-3 0-7 2-10 4l-12 5-22 13c-7 5-13 12-18 20M90 372h2l5-2 9-3c3-1 5-5 9-7l7-2 8-1c3 0 6 2 8 4l5 8v10c-1 3-2 7-4 9l-4 4-4 3c-3 3-4 6-5 10l1-2c0-2 0-4 2-6 0-2 1-3 3-4l4-3c3-3 4-7 5-12 1-4 0-10-2-14l-6-5h-9c-3 1-6 1-8 3l-8 5c-2 2-6 2-9 3l-9 2" fill="#303030"/><path d="M111 391l1 1 4 4 8 2c2 0 6-1 8-5v1l-1 2c-1 1-2 3-5 3h-9a14 14 0 01-6-7v-1M110 401v1h1l5 2h9c3 0 6-2 8-5v1l-1 1-4 4-10 1a25 25 0 01-7-3l-1-1v-1" fill="#303030"/><path d="M135 391l-1 1-2 6 2 10a18 18 0 01-10 17l-8 4-7 4-8 7-7 7-10 5c-7 3-15 4-23 4h2l7-1 11-3 12-6 12-12 8-6 9-3 7-6c2-2 4-5 4-9 1-3-1-6-1-10v-5c0-2 1-3 3-4" fill="#303030"/><path d="M106 412l1 2a18 18 0 008 7l8 2-2 1h-5l-7-4-2-4-1-4M41 370l-9 9-11 11c-4 4-9 9-12 16l-5 11c-2 4-2 8-2 13 0 9 2 18 7 27 5 10 13 18 23 23 11 5 23 7 35 9h-4l-11-2-16-4a53 53 0 01-33-35c-3-9-4-19-2-29 3-10 9-19 16-27l24-22M131 411l1 2 1 4a59 59 0 01-5 43c-5 9-13 18-24 24l2-1a66 66 0 0016-17 65 65 0 009-55" fill="#303030"/><path d="M93 467l5 4c3 3 7 8 9 14l-4-6-10-12" fill="#303030"/><path d="M92 472s1 0 0 0l1-1 1-2 7-8c5-7 13-16 21-29l-2 4a109 109 0 01-25 33l-2 2h-1v1c1 0 1 0 0 0" fill="#303030"/><path d="M117 436v-1h2l4 4c4 3 8 10 9 18l-1-2a58 58 0 00-11-17l-1-2-1-1-1 1M31 479l4 7a375 375 0 0062 72l-7-5a256 256 0 01-40-41c-7-10-14-21-19-33" fill="#303030"/><path d="M77 538a530 530 0 006 2c5 1 11 2 19 1s17-4 26-9l31-19-6 5-16 12c-8 5-17 10-27 12a58 58 0 01-25-1c-3 0-5-2-8-3M91 551a374 374 0 003 3c3 2 7 3 12 3 6 1 12-1 18-5 7-4 14-9 23-12l-5 3-11 8c-5 3-12 7-19 9l-12-1c-4-2-7-5-9-8" fill="#303030"/><path d="M96 556l2 2 7 4a110 110 0 0051 10c7 0 16-1 24-5 8-3 15-9 22-17 7-7 13-15 18-25l-1 3a95 95 0 01-26 34 52 52 0 01-33 13 110 110 0 01-40-5c-9-3-17-8-24-14" fill="#303030"/><path d="M217 529v-1l2-1 6-3 4-2 3-3c2-3 4-7 4-12a1550 1550 0 001 3l-1 7-3 5-4 4-12 3" fill="#303030"/><path d="M234 511v-1h7l7-3 8-5-1 2-4 4-8 4-4-1h-5" fill="#303030"/><path d="M252 505l10-4 5-1 6-1 7-3 5-5v1l-1 2c-1 2-3 4-7 6-3 2-7 2-11 3l-14 2" fill="#303030"/><path d="M273 499h1l1-1 7-1 11 1c2 1 5 1 7 3l6 5 6 6 6 8 8 5c3 2 7 2 10 2 4-1 8-2 12-1l6 3 4 5c3 3 4 8 5 12l3 13-1-3-2-7c-1-4-2-8-5-12l-4-6-7-3-8 1h-11l-9-5-7-8a106 106 0 00-12-12l-4-3-11-3-12 1" fill="#303030"/><path d="M356 531l2 4 4 10 4 18 3 24a416 416 0 0013 64l7 18 4 9 5 9 8 19 5 22-1-5-3-12-8-19-13-23a190 190 0 01-18-64 475 475 0 01-6-56l-6-18" fill="#303030"/><path d="M406 705l2 6 6 16a69 69 0 0015 21l10 11 10 15-1-2-3-4-13-13c-5-6-12-12-17-21s-7-19-9-29" fill="#303030"/><path d="M434 757h-1l1 2a72 72 0 0115 16l6 8c6 6 13 10 23 13 9 3 20 4 32 2 6-1 12-2 17-6 5-3 8-9 11-15a118 118 0 0015-51l-1-12a162 162 0 00-4-18l4 13c2 6 3 14 3 22 0 9-2 19-6 29l-6 15c-3 5-6 11-10 15-2 3-5 5-8 6-2 2-6 3-9 4-6 2-13 2-19 2-7 0-14-2-21-4-6-2-13-5-18-10l-7-7-6-9a65 65 0 00-10-12l-2-2v-1h1M547 619h-1a64 64 0 01-11 4l-4 2-2 1-2 1 1-2 4-3a33 33 0 0113-4l2 1" fill="#303030"/><path d="M534 623v6l5 16 9 24 2 16 3 17-1-2-2-5-3-18c-1-7-4-16-8-25a107 107 0 01-6-21l1-8" fill="#303030"/><path d="M549 691a76 76 0 006 13c1 5 3 10 2 17l-2 9v11l-1-1v-15-8-8l-5-18M539 621a46 46 0 002 0l4 2c2 0 4 2 6 4l6 8 8 9 4 5 4 7 3 7 6 5 4 1 4 3 3 3 4 1h-2l-5-2c0-1-1-2-3-2l-4-2a22 22 0 01-12-11l-3-6-9-11-8-12c-3-4-7-8-12-9" fill="#303030"/><path d="M591 673a229 229 0 003 3l2 5 2 7c2 5 7 10 14 13a56 56 0 0057-2l15-11c5-4 9-9 12-15s4-13 3-20l-2-11-2-11 1-24v-12-12l1 5v15l-1 22c0 4 0 9 2 14l4 14a39 39 0 01-12 33c-4 5-9 8-15 12-5 3-11 7-18 9a57 57 0 01-50-7c-3-2-6-5-7-8l-4-10c-1-3-2-7-5-9M654 504v2l5 5c4 5 8 13 9 24l-1-3a136 136 0 00-11-23l-2-2-1-2 1-1" fill="#303030"/><path d="M663 525a98 98 0 0021 19c5 6 11 16 13 28v19l-3 10c-1 3-2 7-1 10v-1-1l-1-6 2-10 2-12c-1-9-4-19-9-29-6-10-15-19-24-27M603 418v4l-2 9c-1 5-2 10-1 15 0 6 2 13 6 18l-1-1-2-2c-2-2-4-5-5-10v-16l5-17" fill="#303030"/><path d="M598 454a28 28 0 003 6c3 3 7 7 14 11s14 10 22 17l13 12 11 15-5-6-14-13-11-9-5-5-6-4-13-10c-4-4-8-9-9-14M590 350l-1 2v5l4 7 8 10a53 53 0 011 50l-4 10c-2 3-2 6-1 10v-1l-1-1v-7l4-9 4-12a56 56 0 00-11-47l-4-8c-1-3-1-7 1-9" fill="#303030"/><path d="M587 349a174 174 0 002 1l7 1a6449 6449 0 0023-9l-2 2c-1 2-4 3-7 5-2 2-6 3-11 4l-6-1c-3 0-5-2-6-3" fill="#303030"/><path d="M602 339h3l8 2c6 3 15 7 24 14l-3-1-8-4-24-11" fill="#303030"/><path d="M627 350h2l4 3c3 2 7 7 9 13l-5-5-5-5-2-3-3-3M649 234a18 18 0 003 5v4l-3 4-5 3-11 7 7-7 4-3 4-3 2-4-1-6" fill="#303030"/><path d="M643 249l-7 7-19 19a210 210 0 00-31 43l-2 12c0 5 1 9 4 12 3 4 8 6 12 6h-3l-7-3c-3-2-6-6-7-11-2-5-1-11 1-17l10-18 14-17c10-12 22-23 35-33" fill="#303030"/><path d="M582 327l2 2 5 4c5 3 13 7 23 8l-1 1h-2l-8-1a29 29 0 01-15-8l-4-6M592 353h-1-2l-8-5a7865 7865 0 00-1-4l5 5 7 4" fill="#303030"/><path d="M590 351l-2-1-6-2-11-3-15-3-38-10-11-4c-4-1-7-3-11-6-6-6-11-13-14-22a1246 1246 0 005 9l8 9c3 4 8 6 13 8l18 6 21 5 21 6c8 2 16 3 22 8" fill="#303030"/><path d="M442 123a9 9 0 10-17 0 9 9 0 0017 0zM196 230a9 9 0 10-17 0 9 9 0 0017 0z" stroke="#303030" stroke-width=".8"/><g fill="#303030"><path d="M413 119l1 3 4 7c3 6 6 16 8 27l-6-11a103 103 0 01-6-19l-1-7"/><path d="M412 120l2-2 7-5a43 43 0 0129-4h-3a132 132 0 00-35 11"/><path d="M448 107s13 25 27 61c0 0-16-30-27-61"/><path d="M474 165v1l1 3-1 3-2 2-6 2 4-3 3-3 1-5"/><path d="M433 173l3-2a260 260 0 0125-12l3-1 2 2a48 48 0 014 12l-2-4a71 71 0 00-3-6l-2-2-2 1-4 1a307 307 0 01-16 7l-4 2-4 2"/><path d="M440 184l3-1c2 0 5 0 8-2l25-13-10 7a116 116 0 01-18 9h-8M446 108l-1-2c3 6 12 29 22 61l-8-19c-4-11-10-26-14-42l1 2M169 230v-1a24 24 0 016-11c2-3 6-6 12-8 3-2 6-2 9-2s7 2 9 5l-1-1-3-1h-9c-8 3-17 9-23 19"/><path d="M203 210l9 17c6 11 14 27 25 44l-4-5a254 254 0 01-30-56M174 234l2 5a322 322 0 0034 59l-4-5a161 161 0 01-32-59"/><path d="M185 263l-3-3-7-9-4-6-3-9c0-4 1-7 3-10l7-9-3 4-5 10v8l4 8 11 16M208 296a134 134 0 002 2h7c3 0 7-2 10-5l10-11-2 3-5 6c-2 3-5 6-9 8l-7 1c-2-1-5-2-6-4M192 274s-1-2 1-5c0-2 2-3 4-5 1-2 4-3 7-4l9-5 6-2 6 3c5 6 11 14 16 23l-3-5a156 156 0 00-14-16l-4-3-5 1-5 2-11 6-5 4-2 6"/><path d="M198 264l-2 2c-1 1-2 4-1 6 0 3 1 6 4 10l9 10-2-2-6-5c-3-2-5-5-7-9l1-7c0-2 2-4 4-5M163 88l-1 1 1 2 4 7 5 11 3 7c2 2 3 5 6 6h-1l-2-2c-2-1-4-3-6-7a118 118 0 01-9-21l-1-2 1-2"/><path d="M177 123l11-8c7-5 17-13 31-21l23-13 27-14 65-33-50 27c-29 16-71 35-107 62M318 11h1l1 1 4 5 10 17-6-7a109 109 0 01-7-12l-1-2-2-2"/><path d="M162 90l12-7a799 799 0 01118-62l17-8 5-2 2-1h1l1 1a46 46 0 017 5l1 1-3-3a50 50 0 00-5-3l-2-1-3 2-38 19a730901 730901 0 00-113 59"/><path d="M232 51l-21 11a349204 349204 0 00-38 20l-8 4-2 4v4l-1-2 1-5 7-5a569 569 0 0162-31"/><path d="M163 88l-1 8-1 20-1-9 3-19"/><path d="M161 110v1l1 1 3 6 7 7 10 9-3-1-6-4a61 61 0 01-11-13l-1-6"/><path d="M175 131s0 2 3 3l5-1 5-3a973 973 0 0194-52l35-18c6-4 12-7 17-12l5-3 1-2-1-3a16 16 0 00-7-7 16 16 0 017 6l1 3-2 4c-8 7-22 16-39 25l-28 14a1561 1561 0 00-63 34l-16 10-4 2-4 2-5 1c-2 0-3-1-4-3"/><path d="M319 11h-2l1-1 4 3 6 6c3 3 5 6 6 10l3 7 1 7v-1l-1-2-3-8-7-11a38 38 0 00-7-8l-3-3 2 1M161 109l-9 3-10 3-13 5-7 5c-2 1-3 4-5 7l-3 9-3 10c-2 7-3 15-2 23l3 12 4 13-4-10-4-11c-2-5-2-11-2-16l4-19 3-10 5-10 10-6 11-3 22-5"/><path d="M104 159l2 9a450 450 0 0034 109l-1-2-5-7a228 228 0 01-30-109"/><path d="M126 249l5 8 14 22 10 16 14 17 11 22 4 13 2 6-1 7v-1-2c1-2 0-4-1-7l-12-27-11-15a156 156 0 01-24-38l-11-21M325 20l7-2 20-9c4-2 9-5 15-6 5-2 11-3 18-3a59 59 0 0139 16l-2-2a57 57 0 00-15-7l-13-3c-10-1-21 0-32 4l-18 7c-6 3-12 4-19 5"/><path d="M404 5h2l5 1c4 0 10 2 17 7 6 5 13 12 19 22a220 220 0 0116 32l-15-23c-5-8-10-16-17-23S415 7 404 5"/><path d="M438 47l7 5 9 6 12 7 13 13 10 18 19 44-18-33-8-16c-3-6-6-11-11-16-4-6-10-9-16-14l-17-14"/><path d="M498 119a113 113 0 0011 17c7 12 15 28 20 49l-10-21-21-45M264 291l1 1 2 3a77 77 0 0029 24l14 5c4 2 10 2 16 3 11 2 24 3 38 2 7-1 14-2 21-5l2-1 3-1 5-3 9-7 17-17 9-10 6-11a74 74 0 001-53l2 5a71 71 0 01-16 72l-13 14-17 13c-7 3-14 6-22 7l-23 1a237 237 0 01-47-9c-16-7-29-18-37-33M232 321h3l10 1 15 6c5 3 12 6 18 11 7 4 13 11 19 18 6 8 12 16 17 27l4 16-1 18c-3 12-9 23-17 34l2-3a149 149 0 0011-27 58 58 0 00-8-47 150 150 0 00-29-34l-13-9-15-7c-5-2-10-4-16-4"/><path d="M220 343h8c5 0 12 1 21 4 8 4 18 10 27 19 8 9 15 22 19 36l-1-2a115 115 0 00-15-25 82 82 0 00-59-32M132 423l6 5 7 7 8 10c5 8 10 18 13 31s3 28 0 43v-2a161 161 0 00-2-31 114 114 0 00-19-48l-13-15M153 411s-2 6-9 10c0 0 2-7 9-10M92 375h-1l-1 1c-1 1-3 2-4 5-2 2-2 5-2 9l1 6c1 2 2 5 4 6h-1l-2-2c-1-1-3-3-3-6v-12c1-3 5-7 9-7M95 346l-1-1-1 1-4 3c-1 2-2 5-1 8l2 4c1 2 3 3 5 3h-1-2l-5-4v-10c0-2 1-3 3-4h5"/><path d="M84 353v1l1 4c0 2 0 4 2 5 1 2 3 4 6 4h-2l-4-1c-2-1-3-3-4-6l1-7"/><path d="M81 355l1 1 1 4 3 4c1 2 3 3 6 1v1h-1l-5 1a7 7 0 01-4-5l-1-7M77 356v6l2 5c1 2 3 4 6 3v1h-2l-4-1-2-3-1-4 1-7M73 359v4l3 8-1-1-3-2-1-4 2-5M82 373l-1 2-4 4-2 8c0 3 0 7 4 9h-1l-1-1c-2-1-3-3-4-6a12 12 0 012-9c1-3 4-5 7-7M69 371h-1l-1 2a18 18 0 00-6 14l2 6c1 2 3 4 5 4l-2-1c-2 0-5-2-6-5v-11c2-4 5-8 9-9"/><path d="M62 372l-3 1c-2 0-5 1-7 3l-3 4-1 7c1 4 4 9 8 13l-3-2-6-8-1-6 2-7 6-4 8-1M51 399l-2 2-4 7c-2 3-3 7-2 11a11 11 0 0012 9h-1-2c-3 0-6-1-9-5-2-3-3-8-1-12 1-5 5-9 9-12M65 400l-1 2-3 4c-1 2-2 5-1 8s2 6 6 7h-1-1l-5-4a11 11 0 010-10c1-3 3-5 6-7M76 402l-1 2a34 34 0 00-3 12l1 5c0 1 2 2 4 1l-2 1-3-1-2-3 1-9c1-3 2-6 5-8"/><path d="M86 404l-2 2-4 5c-1 2-3 5-2 8 0 2 1 4 3 5 1 1 4 2 6 1l-1 1h-2l-6-3c-2-3-3-7-1-11l9-8M55 431l-3 1c-2 1-5 3-6 6-2 2-1 7 2 11 3 3 9 4 15 2h-1l-2 1c-2 1-6 2-10 0a11 11 0 01-7-12c0-2 2-5 4-6 2-2 5-2 8-3M43 430l-2 1-4 4c-2 2-2 5-2 9 0 2 0 3 2 5l5 2h-2l-3-1c-1 0-3-1-3-3l-1-5 1-5 3-5 6-2M38 427h-8c-3 0-6 0-8 3s-3 7-1 11v-1l-1-1v-7l2-5 5-2 11 2M40 424h-1l-2-1c-2-1-5-2-6-6a16 16 0 01-1-13c2-5 6-9 11-12l-2 2-6 8c-1 3-3 7-2 11 1 5 4 9 9 11M117 364l-1 1-1 1-2 8c0 3 1 7 4 10s8 5 14 4h-1l-2 1a15 15 0 01-14-6c-2-1-3-4-3-6-1-5 1-10 6-13M75 446l4-5 10-14-1 2a37 37 0 01-13 17"/><path d="M18 399v2c-1 1-2 2-2 5-2 4-3 11-2 20a43 43 0 0049 37h-2l-6 1a42 42 0 01-41-30c-4-11-2-25 4-35M158 454a910 910 0 004 3c3 3 7 6 11 12 4 5 7 12 11 20l7 29-2-6-5-16-9-21c-4-8-10-15-17-21M155 445a112 112 0 0036 24c6 6 12 15 15 25l-1-2a65 65 0 00-11-17c-4-5-10-11-17-16l-22-14M169 429l2-2 2-1 4-2c5-3 14-6 25-5a59 59 0 0136 16c12 10 20 26 23 44l-1-3a84 84 0 00-15-32c-4-4-8-9-14-13a58 58 0 00-52-8l-10 6"/><path d="M216 397h2l6 2 19 12 12 11c4 4 7 9 10 16 4 12 4 28-1 43v-2l2-7c1-6 2-14 0-24a51 51 0 00-17-30l-15-12c-6-4-11-7-18-9"/><path d="M261 401a188 188 0 0013 24c4 8 7 18 8 31 0 6 0 12-2 19-2 6-5 13-9 18l1-2 3-5c2-5 5-12 5-22a76 76 0 00-4-30l-15-33M500 185l3-1 9-1a174 174 0 0186 12l15 7 13 10c4 4 7 10 12 12l8 3 3 3v5l1-1-1-3-3-3-5-2c-3 0-5-1-8-3l-6-6c-4-5-9-9-16-12a208 208 0 00-111-20"/><path d="M642 226h2l6 3c3 1 4 5 4 9s-3 8-5 11v-2l1-7-1-7c-1-3-4-5-7-7M487 187l-2 2-5 5c-4 5-9 13-11 25l-1 19a115 115 0 0027 71l-2-2a93 93 0 01-21-34c-5-12-8-27-7-43 1-8 2-16 6-24 3-8 9-15 16-19"/><path d="M498 210l-1 2-3 7a99 99 0 00-4 67c5 16 14 32 29 44l-2-2-7-5a87 87 0 01-12-113"/><path d="M522 329l-2-1-4-4a69 69 0 01-20-49c0-13 4-27 12-40l-1 2a78 78 0 00-8 28 78 78 0 0023 64"/><path d="M516 265v2a52 52 0 003 23 121 121 0 0022 38c4 4 10 8 16 9h-2l-6-2c-4-1-10-6-15-12a91 91 0 01-19-41l1-17"/><path d="M515 308l3 4a73 73 0 0023 22c7 4 15 8 24 9h-5c-4 0-9-1-15-4a56 56 0 01-25-20l-5-11M549 319l2 3 7 8 10 10c5 4 10 8 17 10l-4-1c-3 0-7-1-11-4-4-2-8-6-11-11-4-4-7-9-10-15M560 191l-2 3-5 8c-4 6-9 17-12 30v-1-3a48 48 0 017-24c3-5 7-10 12-13M548 233a75 75 0 0014 7c8 5 19 13 29 25l-13-10-30-22M591 263l4-2a229 229 0 0039-36l-3 4a86 86 0 01-40 34"/><path d="M547 232l5 1c2 1 6 3 9 7l-5-2-9-6"/><path d="M544 230l3 1c2 0 5 2 6 6l-3-1-6-6"/><path d="M548 233s-6 0-11-6c0 0 7 0 11 6M460 222v-6a66 66 0 019-28l10-12c4-3 9-6 15-5s12 5 15 10l-1-2a21 21 0 00-12-6l-10 1-9 8-8 11c-4 9-7 19-9 29M458 217a86 86 0 00-1 19 98 98 0 01-17 46l2-5a170 170 0 0016-60M458 194l-3 15c-2 9-6 22-13 36l4-16 12-35M303 85l7-4a428 428 0 0050-35l17-14c6-5 13-10 21-13l-2 1-6 4-20 18a247 247 0 01-67 43M405 22l5 3c2 2 6 6 8 11l-5-4-8-10M414 23l3 3c2 2 4 6 5 11l-3-4-5-10M422 27l1 1 3 3c2 3 5 8 4 14l-1-2-2-4-5-12"/><path d="M428 35s5 6 4 15c0 0-5-7-4-15M250 112l-8 6a201 201 0 01-42 22l-21 8c-7 3-15 7-21 14l-7 11c-1 4-2 9-1 14v-1l-1-2 1-8c0-4 2-8 5-13l12-12 19-8 21-8c14-6 29-14 43-23M146 166l-1 2-1 7c0 5 0 12 3 21l-2-2a23 23 0 011-28"/><path d="M138 181l1 3 3 7c1 3 2 7 5 10 2 4 5 8 10 11l-3-1-7-5-7-11-2-14M145 205l1 1 4 4 14 11-2-1a28 28 0 01-17-15M148 215l5 2 12 7-6-1c-4-1-8-4-11-8M218 154l-1 4-1 11c-1 9-1 22 2 37l-1-1-1-3a61 61 0 012-48"/><path d="M210 174a88 88 0 001 13l3 14c1 5 2 11 5 17l-1-1-1-2-5-10-3-14 1-17M413 42l3 6 6 16-4-6c-3-4-5-10-5-16M421 53l3 6 6 18-4-7c-2-4-5-10-5-17M429 62l1 2 1 6 6 20-1-2-4-6c-2-5-4-12-3-20"/><path d="M437 77v2l2 4 4 16-1-2-4-4c-2-4-3-10-1-16M166 189a568 568 0 004 3l11 5c5 1 12 2 19 6 3 1 7 3 10 6 2 3 5 8 5 12v-1l-2-4c-2-3-5-6-10-9-4-3-11-4-18-7l-10-4c-3-2-7-4-9-7M160 194l2 1a165 165 0 0020 9h-2a23 23 0 01-20-10M165 202l4 1 10 3-5 1c-3 0-7-2-9-5M553 613l17-22 19-25c6-10 13-22 17-36v2l-2 6c-1 6-4 13-8 21l-18 27-25 27M555 616l6-4a310 310 0 0067-68l-1 2-4 6a179 179 0 01-68 64"/><path d="M565 610l17-11 43-26-5 4a239 239 0 01-55 33M389 641l10 1a269 269 0 00119-22l-3 1-7 4a193 193 0 01-119 16M427 663l7-2a732 732 0 0081-34l-7 4a244 244 0 01-81 32M526 631l-1 2-4 5a147 147 0 01-45 43c-13 8-28 15-45 19l3-1 7-3a188 188 0 0071-48l14-17M530 638v3l1 8a95 95 0 01-79 96l3-1a98 98 0 0037-19 104 104 0 0028-35c7-16 11-34 10-52M459 759h2l6-2a137 137 0 0087-58l-1 2-4 7a110 110 0 01-48 41 121 121 0 01-42 10M588 667a666 666 0 007 2l20 2c8-1 18-4 29-9 11-4 22-11 34-19l-7 5-18 13c-8 4-18 9-30 11a63 63 0 01-27-1l-8-4"/><path d="M692 607a767 767 0 000 5l-3 12c-2 6-5 12-10 18s-11 11-19 16l4-4 10-10c7-8 16-21 18-37M664 536v8l-3 21a87 87 0 01-48 56l2-1 6-4c4-3 11-8 17-15a106 106 0 0026-65M668 567l-1 4a63 63 0 01-13 28c-4 5-10 11-17 15l1-1 3-2a109 109 0 0027-44M600 474a60 60 0 001 16 69 69 0 01-17 38l1-1 1-3a115 115 0 0014-50M606 469a101 101 0 003 21 113 113 0 01-11 54v-2l2-4a183 183 0 006-69M594 446l-1 3-2 9-8 13-14 15a387 387 0 01-69 51l-33 13 4-1a213 213 0 0043-23c13-8 28-19 43-32l22-21c7-7 13-17 15-27M369 562h6a371 371 0 0072-14l-6 3a151 151 0 01-72 11M380 556l5-1 14-3c12-2 28-6 47-13l-5 3a139 139 0 01-61 14M671 279l-1 1a132 132 0 00-14 21c-4 8-7 17-8 29-1 11 1 24 9 36l-1-2-4-5c-3-4-6-11-7-21a60 60 0 015-30c5-11 12-21 21-29"/><path d="M653 358l-1-1v-4c0-4 1-9 4-15s8-12 14-19 13-13 22-19l-5 4a197 197 0 00-32 41c-2 4-3 8-2 13"/><path d="M671 329l-1 4-3 10c-1 4-3 10-3 16-1 6-1 13 1 20l-2-4-2-12 2-17 8-17M643 358v1l-1 3 1 10c1 4 3 9 8 13 4 5 10 8 18 10h-5c-3-1-7-2-11-5-5-2-9-7-12-13-2-6-2-13 2-19"/><path d="M642 360s-1-7 4-16c0 0 1 9-4 16M657 392a202 202 0 002 1l5 6 2 12c1 4 0 10-1 15l-2 19c0 7 2 15 5 22 4 7 9 13 12 22l2 7 1 6c1 2 3 4 5 4l7 1h-7l-4-2c-2-1-3-3-3-5l-1-7c-2-5-4-10-8-15-3-5-7-11-9-18-3-7-3-15-2-23l1-11 3-12-1-12c-1-4-4-8-7-10M696 503l1-1 3-4c3-3 7-7 14-11a82 82 0 0149-12l9 3-2-1-5-1a100 100 0 00-44 10c-8 4-17 10-25 17"/><path d="M704 490l1-1 3-3a51 51 0 0122-15 54 54 0 0143 4l-6-3a66 66 0 00-40 3c-8 3-16 8-23 15M754 316l2 2a55 55 0 019 14l2 13v-1l-1-2-2-6-10-20M655 241l2-1h5l9 3 10 5 6 2 7-1c6 0 11 4 14 10a47 47 0 014 6l1 2 3 3 3 3 8 6 4 4 3 4-1-2-5-4-8-5-5-4-5-5c-2-4-4-8-8-11-1-2-4-3-6-4h-12l-5-2-7-4c-5-3-11-6-17-5"/><path d="M707 278h6c4 0 10 1 16 5 6 3 13 9 19 16 6 8 11 18 15 29l-3-6-10-15c-4-6-10-13-17-19-7-5-16-9-26-10M610 315l1-2 2-4a119 119 0 0135-38c10-7 21-14 35-18l-2 1-6 3a160 160 0 00-54 43l-11 15"/><path d="M655 275l1-1 2-2 10-6a47 47 0 0139-1h-1l-4-1a61 61 0 00-29 2 74 74 0 00-18 9M675 296l1-1 3-2a54 54 0 0132-10l13 2 6 4c2 1 4 3 4 5l-1-1-2-3c-3-2-8-3-14-4s-13 0-20 1c-7 2-15 5-22 9M708 305a643 643 0 006 0l15 4c6 2 13 6 21 11l11 8 5 7 1 8v-2l-1-4-4-6-8-6c-11-7-28-16-46-20"/><path d="M735 324l3 1a63 63 0 0126 14c2 1 4 4 4 7v-1l-2-2c-1-2-4-3-7-5l-24-14M647 244l1-1 5-4 10 1 9 6-2-1-6-2-8-1c-3 0-6 0-9 2"/><path d="M767 342l1 4 4 12c1 5 2 12 0 19l-4 11c-2 4-3 8-2 12l-1-1v-4l3-13 2-9v-10l-3-21"/><path d="M765 392a56 56 0 002 11l2 4 3 3c3 2 5 5 6 9 1 3 3 7 3 12a11 11 0 01-3 7l-2 3-2 2c-1 5 0 10 1 15v-1l-2-5-1-7 1-5 3-4 2-4v-5l-2-5-2-6-4-5-4-5-1-7v-7"/><path d="M771 444v1l-1 3 1 5 4 5 5 7c2 3 4 7 3 11s-4 7-7 9c-4 3-8 4-12 5l5-2c2-2 7-4 10-8 1-2 2-5 1-8l-4-8-6-9c-1-4-1-8 1-11M689 506v-4a63 63 0 009 46l5 8c1 4 1 7 3 10l6 8c3 2 6 4 9 4 2 1 4 0 5-1l2-4-2-6-3-5a148 148 0 01-10-21 109 109 0 0011 20 69 69 0 004 7l2 5-1 5c-3 3-8 4-11 2-2 0-4-1-5-3l-5-3-4-5-2-6-1-5-3-6a67 67 0 01-10-23c-2-9-1-18 1-27v4"/><path d="M712 538v1l2 2 7 7 6 6 6 4c2 1 5 0 7-3 2-2 3-6 4-9v4l-2 5c-1 2-2 4-5 5l-4 1-4-2c-3-1-5-4-7-6l-6-7-2-3-2-5"/><path d="M744 548l-7-6c-3-3-8-10-11-18l2 2 4 5 12 17"/><path d="M741 543a61 61 0 002 2c1 2 4 3 7 4h5c2 0 4-1 5-3l1-7-2-8 2 3 2 10-1 3-2 3-7 2c-5 0-10-4-12-9"/><path d="M755 507l-1-1h1c1 4 3 16 8 31l-2-2-3-7c-2-5-4-14-4-22v-1 1l1 1"/><path d="M759 529a18 18 0 004 6 108 108 0 0011 8l4 3 5-2c2-2 2-4 2-6 0-5-2-9-5-14l-10-16a54 54 0 01-4-17 62 62 0 0011 25c3 3 6 7 8 12l3 7c0 3 0 6-2 9l-3 3-5 1-5-2a121 121 0 01-10-9l-4-8"/><path d="M765 493l-1-1v-5l4-5 1-3-1-4 2 1 1 5-1 3-2 3c-1 2-3 3-3 6M691 537v-2l2-4c2-4 6-9 13-14a111 111 0 0160-20h-2a158 158 0 00-50 18c-5 3-9 5-13 9-4 3-8 8-10 13M672 397l1-2 3-4c3-4 9-9 18-13l15-4 19 1a117 117 0 0129 8c4 2 7 5 9 8v-1l-2-1-5-4c-5-2-13-5-23-6-9-2-21-3-32-1l-18 6c-5 3-10 8-14 13"/><path d="M713 355h5l12 3 17 11 9 8c3 4 6 7 7 12l-1-1-2-4c-2-2-5-6-10-9l-16-12c-6-4-13-7-21-8M670 448l-2 1h-1v-1-1a142 142 0 011-6c2-6 7-15 17-23 10-9 24-16 42-18 8 0 17 0 27 3 9 3 17 9 23 18l-1-1-1-1c-1-2-3-4-7-6-6-5-16-10-29-10-13-1-28 2-42 10-7 4-14 9-20 15l-7 11a29 29 0 00-3 10l3-1"/><path d="M710 421l1-1 2-4 6-4 10-2h12l13 4c4 2 9 5 12 10 3 4 5 10 4 16v-2l-1-5c-1-4-4-9-10-13s-14-7-23-7h-14c-5 1-10 4-12 8"/><path d="M749 423a51 51 0 0010 6l9 10 2 8-1 9v-1-3l-2-8-7-11-11-10M684 495v-2-6c0-4 1-12 5-20 2-4 6-8 10-12 4-3 10-6 16-7l20 1c6 1 13 2 20 6l-2-1-6-1-10-2-13-1-14 3c-5 1-10 4-14 8-8 9-12 21-12 34M547 208l-4 16a556 556 0 01-9 28c-2 4-3 8-2 12v-1l-1-4 2-13c3-11 7-25 14-38M544 233v7c-1 4-2 11-6 17l1-8c1-4 2-10 5-16M596 258v1l-2 3c-1 3-4 7-8 10l-17 11-22 11 16-10a1302 1302 0 0126-17l7-9M462 140a118 118 0 0023 18l7 7c2 2 5 5 5 9v-1l-2-3-8-7-25-23M199 284l1 2 3 8 2 11 1 15-3-11-4-25M140 574h2l5-1c4-1 10-2 17-6 7-3 15-8 22-16 8-7 16-16 23-27l-4 7-11 16c-6 7-13 14-22 19s-21 9-32 8"/><path d="M123 570a590 590 0 006 2c5 0 11 0 18-3s15-9 22-16c8-8 16-16 24-27l-4 7a129 129 0 01-22 25c-3 4-7 7-12 10l-16 5c-5 0-11 0-16-3M144 437a254 254 0 0029 5c9 2 20 5 31 11s23 15 31 28l-1-2-5-5-18-14c-9-5-19-10-30-13l-37-10"/></g><path d="M374 457l-30-56 60-29 27 49" stroke="#303030" stroke-width=".8"/><path d="M409 382l73-35 22 50-69 31" stroke="#303030" stroke-width=".8"/><path d="M406 377l73-36 4 6M344 401l2-6 56-26 2 3M372 455l58-25" stroke="#303030" stroke-width=".8"/><path d="M278 498l1-1 4-4c3-3 6-9 7-17l1-12a97 97 0 00-14-50 2906 2906 0 005 6 78 78 0 0113 49c-1 6-2 11-5 17-2 5-7 10-12 12" fill="#303030"/><path d="M293 465l1-1 1-1 5-9c4-8 9-18 14-32v4a64 64 0 01-14 33l-3 4-4 2" fill="#303030"/><path d="M312 391a119 119 0 009 30c2 10 3 22 0 36-2 7-4 14-9 20-4 7-9 13-16 17l2-2 5-5c4-4 8-12 12-21a84 84 0 004-35c-1-13-4-27-7-40M225 295l30 18c9 6 20 13 34 19 7 3 14 5 22 6 9 2 17 2 26-1l-3 1-7 2c-7 1-17 2-28-1-12-3-24-9-37-17l-37-27M578 346l-1 2a23 23 0 00-3 14l4 11a174 174 0 0110 41l-2 10c-2 7-5 13-9 20l3-8c1-3 3-6 3-10l2-12-3-15a361 361 0 00-10-35c-1-6 1-13 6-18" fill="#303030"/><path d="M583 405a257 257 0 001 5l5 12 8 19 1 6 2 7c0 4 1 8 4 12l-1-1-3-3-2-6-3-8c-1-6-4-12-7-19l-4-12-1-12" fill="#303030"/><path d="M582 390v2l1 4 1 17a66 66 0 01-31 49l1-1 4-4a79 79 0 0021-38 98 98 0 003-29" fill="#303030"/><path d="M578 378l1 2 2 4a38 38 0 012 19c-1 8-5 18-10 27-6 9-15 19-26 26l6-5a118 118 0 0025-41c3-10 4-21 0-32" fill="#303030"/><path d="M578 379v1l1 4-1 16a61 61 0 01-30 42l1-1 4-3a81 81 0 0020-33 100 100 0 005-26M315 478l5 6 14 16c6 7 13 15 19 26l9 18c2 7 3 14 3 22v-2l-2-7c-1-5-3-13-8-21l-18-27c-8-10-16-20-22-31" fill="#303030"/><path d="M319 484l5 2a90 90 0 0068-1l-1 1-5 2a66 66 0 01-55 3l-12-7" fill="#303030"/><path d="M327 496a1727 1727 0 0019 9 66 66 0 0050-6l-1 1-4 3a52 52 0 01-64-7" fill="#303030"/><path d="M345 514l4 2 10 3c4 2 9 3 16 2 6 0 13-2 19-6l-1 1-2 2-11 6c-5 1-12 2-18 0s-12-5-17-10" fill="#303030"/><path d="M359 526l3 1h9c7-1 17-2 27-9l-1 1-1 2-8 5a33 33 0 01-22 3c-2 0-5-1-7-3M362 540h2l7-2 21-7-2 2-6 4c-5 3-14 5-22 3" fill="#303030"/><path d="M352 525l1 1 3 1c3 2 8 4 14 5 6 2 14 3 23 2s19-4 30-8l34-16a786 786 0 00103-66l10-9c3-4 5-8 6-13v1l-1 5c-1 3-5 8-10 13a581 581 0 01-121 79c-13 7-28 13-45 15h-24c-8-2-16-5-23-10M361 557l3 1 8 1c7 2 18 3 31 2s29-4 46-9c18-5 36-13 57-21l-12 6-31 14c-13 5-29 10-47 12s-37 1-55-6M282 496l3-1 7-3c5-3 13-7 21-15v1l-1 2a30 30 0 01-30 16M343 82l8 2c5 1 13 2 22 6a69 69 0 0129 22c8 10 15 24 21 39l-4-9-13-21c-6-9-14-18-25-25s-25-10-38-14" fill="#303030"/><path d="M414 132l-2-3a69 69 0 01-7-14l-2-7c0-3 0-6 2-9l5-8v1l-1 3c-2 2-4 5-4 8l3 14 6 15" fill="#303030"/><path d="M407 120h-1l-1-2-5-6a32 32 0 01-5-20v-8l1 3 1 9c0 7 4 17 10 24M396 106l-2-2-2-7-3-10c-1-4-2-9-5-13l1 1 1 1 4 7 2 11 4 12M351 83l5 1c4 1 8 2 13 5l-6-1c-3-1-8-2-12-5M438 760l1 3 4 9c3 8 8 20 18 32 5 6 10 12 18 18 7 5 16 10 26 9 6 0 11-1 16-3 4-3 8-7 11-12s4-11 5-17a157 157 0 002-15v11l-3 17c-2 7-7 14-15 19-7 4-17 5-27 3-9-3-18-9-26-16-14-16-25-36-30-58M603 694l1 2 4 6a86 86 0 0031 25c5 2 12 3 18 2l9-5 6-9 7-23-2 10-2 11c-1 4-3 10-7 14-5 4-11 6-18 6-6 0-13-3-19-6-12-8-22-19-28-33" fill="#303030"/></g></svg>