<svg clip-rule="evenodd" fill-rule="evenodd" stroke-linejoin="round" stroke-miterlimit="2" viewBox="0 0 500 500" xmlns="http://www.w3.org/2000/svg" xmlns:xlink="http://www.w3.org/1999/xlink"><linearGradient id="a" gradientTransform="matrix(.760591 .321302 .321302 -.760591 .155213 -.042484)" gradientUnits="userSpaceOnUse" x1="0" x2="1" y1="0" y2="0"><stop offset="0" stop-color="#7fc8ef"/><stop offset="1" stop-color="#1b95d7"/></linearGradient><linearGradient id="b"><stop offset="0" stop-color="#3db600"/><stop offset="1" stop-color="#216400"/></linearGradient><radialGradient id="c" cx="0" cy="0" gradientTransform="matrix(-19.198 19.4854 -19.4854 -19.198 12.3012 -10.1867)" gradientUnits="userSpaceOnUse" r="1" xlink:href="#b"/><radialGradient id="d" cx="0" cy="0" gradientTransform="matrix(-19.198 19.4854 -19.4854 -19.198 -8.39123 -22.0941)" gradientUnits="userSpaceOnUse" r="1" xlink:href="#b"/><clipPath id="e"><path clip-rule="nonzero" d="m193.349 241.571c0-6.019-4.879-10.898-10.898-10.898-6.018 0-10.897 4.879-10.897 10.898 0 6.018 4.879 10.896 10.897 10.896 6.019 0 10.898-4.878 10.898-10.896z"/></clipPath><g transform="matrix(22.94 0 0 22.94 -3935.42 -5291.64)"><ellipse cx=".5" fill="url(#a)" rx=".5" ry=".5" transform="matrix(0 21.7945 21.7945 0 182.451 230.673)"/><g clip-path="url(#e)" fill-rule="nonzero"><path d="m0-18.847c-1.593 0-3.101.35-4.465.964-1.582 1.891-2.538 4.326-2.538 6.986 0 6.018 4.879 10.897 10.898 10.897 1.592 0 3.101-.35 4.464-.964 1.583-1.892 2.538-4.326 2.538-6.986 0-6.018-4.878-10.897-10.897-10.897" fill="#c6f3ff" fill-opacity=".25" transform="translate(182.451 249.52)"/><g opacity=".6" transform="matrix(.62951 0 0 .62951 10.2543 88.5989)"><path d="m0-3.225c.029.022.06.045.091.065.429.288.967.327 1.478.356.328.019.685.03.953-.163.38-.275.421-.839.321-1.304-.101-.464-.305-.916-.279-1.391.04-.73.601-1.301 1.085-1.84.448-.498.856-1.143.892-1.842.029-.577-.501-1.254-.315-1.795.111-.323.51-.471.74-.733.468-.538.067-1.393-.576-1.741-.644-.347-1.427-.354-2.167-.436-.583-.065-1.232-.229-1.509-.707-.106-.181-.147-.394-.284-.555-.385-.448-1.18-.198-1.637.188-1.449 1.222-3.627 1.726-4.968-.054-.185-.246-.353-.537-.637-.648-.416-.161-.856.134-1.206.413-1.989 1.588-3.976 2.244-4.634 5.019-.25 1.057-.252 2.185.062 3.224.183.602.47 1.175.561 1.799.087.601-.012 1.224.132 1.814.142.59.671 1.165 1.251 1.03.824-.192 1.012-1.376 1.714-1.79.555-.328 2.094-.582 2.502.083.203.332.096.759.093 1.151-.006.704.388 1.396.987 1.742.213.122.465.219.575.442.123.249.014.55-.121.791-.485.867-1.42 1.163-1.915 1.966-.801 1.303-.156 3.05.8 4.238.956 1.19 2.221 2.153 2.876 3.538.322.681.486 1.444.908 2.063.423.62 1.248 1.063 1.905.716.901-.478.697-1.813.782-2.847.183-2.24 2.289-3.975 2.378-6.221.035-.878-.374-1.875-1.203-2.105-.398-.112-.906-.073-1.115-.436-.131-.225-.075-.513-.141-.767-.19-.726-1.963-1.194-2.629-1.275-.325-.04-.704-.08-.878-.364-.103-.169-.105-.39-.218-.553-.206-.3-.692-.286-.886-.594-.091-.143-.095-.323-.092-.493.016-.878.576-1.669 1.511-1.298.305.12.589.309.914.351.226.03.46-.015.683.031.503.104.804.614 1.216.932" fill="url(#c)" transform="translate(266.9 244.297)"/><path d="m0-27.9c-.584-.106-1.176-.139-1.774-.064-.339.042-.678.118-1.019.101-.319-.015-.629-.108-.944-.164-1.634-.286-2.183.508-3.308 1.273-1.03.701-2.332.224-3.429.755-.443.215-.857.604-1.043 1.069-.258.645.126 1.14-.121 1.738-.133.323-.352.63-.351.979 0 .149.041.302-.005.444-.044.136-.158.235-.273.321-.643.49-1.505.957-1.527 1.766-.01.348.154.68.176 1.029.036.583-.32 1.2-.065 1.726.177.362.596.542.995.598.707.099 1.418-.096 2.105-.29.616-.174 1.32-.427 1.52-1.035.184-.558-.138-1.244.201-1.725.452-.642 2.317-.952 2.262.252-.01.246-.129.5-.035.728.062.147.198.246.31.359.398.406.478 1.087.184 1.573-.912 1.509-3.183 1.649-3.942 3.439-.964 2.277-.283 6.85 1.988 8.258.123.076.256.146.339.266.132.186.104.439.069.665-.141.931-.282 1.862-.422 2.793-.067.446-.093.993.279 1.248.31.211.731.093 1.083-.04 2.063-.785 3.371-1.602 4.847-3.208 1.387-1.513 1.48-2.768 2.336-4.515.309-.632.938-1.066 1.223-1.708.298-.672.17-1.446.036-2.169-.108-.591-.217-1.181-.327-1.772-.087-.467-.201-.981-.585-1.262-.346-.252-.877-.29-1.059-.677-.072-.152-.071-.331-.149-.48-.135-.259-.453-.346-.715-.476-.584-.289-.418-.858-.239-1.348.239-.655.836-1.223 1.533-1.228 1.223-.008 1.822 1.5 2.868 2.131.478.288 1.042.383 1.591.474 2.125.352 4.856.948 6.821-.383.635-.43.69-1.226.466-1.878-.609-1.776-2.455-2.732-3.307-4.358-.468-.892-.447-1.364-1.306-1.939-1.002-.672-2.222-1.144-3.297-1.697-1.268-.652-2.607-1.318-3.99-1.569" fill="url(#d)" transform="translate(287.593 256.204)"/></g><path d="m0 16.981c-6.019 0-10.897-4.879-10.897-10.897 0-2.921 1.156-5.569 3.027-7.525-2.845 1.966-4.712 5.247-4.712 8.967 0 6.018 4.879 10.896 10.897 10.896 3.098 0 5.886-1.297 7.871-3.372-1.758 1.215-3.887 1.931-6.186 1.931" fill="#222226" fill-opacity=".2" transform="translate(184.136 234.045)"/></g></g></svg>