<svg clip-rule="evenodd" fill-rule="evenodd" stroke-linejoin="round" stroke-miterlimit="2" viewBox="0 0 500 500" xmlns="http://www.w3.org/2000/svg" xmlns:xlink="http://www.w3.org/1999/xlink"><clipPath id="a"><path clip-rule="nonzero" d="m193.349 241.571c0-6.019-4.879-10.898-10.898-10.898-6.018 0-10.897 4.879-10.897 10.898 0 6.018 4.879 10.896 10.897 10.896 6.019 0 10.898-4.878 10.898-10.896z"/></clipPath><g transform="matrix(22.94 0 0 22.941 -3935.42 -5291.88)"><ellipse cx=".5" fill="#f6ba68" rx=".5" ry=".5" transform="matrix(0 21.7945 21.7945 0 182.451 230.673)"/><g clip-path="url(#a)" fill-rule="nonzero"><g fill="#ffd7a9"><path d="m0 3.407c4.676.351 9.32 1.065 14.001 1.339 12.492.732 25.114-1.675 37.493.162.865.128 1.729.277 2.589.44-2.534-2.172-5.264-4.121-8.16-5.817.368.215.737.429 1.099.653-2.336-.213-4.688-.321-7.016-.38-15.904-.4-31.799 1.013-47.708 1.129-1.625.012-3.293-.005-4.941-.135 1.61-1.039 3.277-1.996 4.994-2.869-3.014 1.531-5.873 3.319-8.542 5.349 5.401-.197 10.805-.276 16.191.129" transform="matrix(.209463 0 0 .209463 178.581690422 231.71006523)"/><path d="m0 .417c4.516 1.334 8.827 3.334 13.404 4.442 12.108 2.933 25.363-.503 37.222 2.522-.698-2.03-2.647-3.432-4.69-4.128-2.102-.715-4.351-.841-6.535-1.241-7.912-1.451-14.795-6.452-22.66-8.14-5.812-1.247-11.84-.618-17.765-.139-14.216 1.149-28.504 1.392-42.751.746.198-.479.406-.953.617-1.426-.753 1.692-1.425 3.427-2.01 5.203 15.147.669 30.655-2.129 45.168 2.161" transform="matrix(.209463 0 0 .209463 180.603427298 238.430266659)"/><path d="m0 6.59c4.797.386 9.273 2.473 13.944 3.631 6.338 1.571 13.099 1.401 19.35-.487 2.419-.731 5.187-2.331 5.064-4.855-.089-1.833-1.716-3.177-3.272-4.149-6.425-4.015-14.139-5.932-21.695-5.389-6.333.454-12.415 2.563-18.643 3.798-3.968.787-8.158 1.182-12.127.599.934 2.872 2.095 5.64 3.459 8.287 4.607-.599 9.317-1.805 13.92-1.435" transform="matrix(.209463 0 0 .209463 174.767369192 245.422141599)"/></g><path d="m0-11.992c.463-.385.905-.792 1.345-1.204-5.367 2.568-11.376 4.017-17.312 4.71-10.149 1.184-20.429.476-30.617 1.247-1.668.126-3.348.299-5.014.545 5.152 3.539 10.923 6.235 17.12 7.898-1.46-.393-2.9-.84-4.313-1.345 13.046-3.694 28.344-3.17 38.791-11.851" fill="#ffce94" transform="matrix(.209463 0 0 .209463 186.457708685 252.815347647)"/><path d="m0 9.046c15.909-.116 31.804-1.529 47.708-1.129 2.328.059 4.68.167 7.017.38-8.537-5.265-18.588-8.309-29.354-8.309-11.173 0-21.572 3.285-30.311 8.923 1.647.13 3.315.147 4.94.135" fill="#e08038" transform="matrix(.209463 0 0 .209463 176.968406396 230.0107128573)"/><path d="m0 1.959c-10.447 8.681-25.745 8.157-38.791 11.851 5.895 2.107 12.241 3.264 18.859 3.264 22.412 0 41.741-13.17 50.692-32.189-6.499.776-12.969 1.479-18.322 5.055-4.804 3.209-7.995 8.327-12.438 12.019" fill="#e08038" transform="matrix(.209463 0 0 .209463 186.457708685 249.893129334)"/><path d="m0 73.542c11.61.284 23.22.569 34.83.853 7.524.184 16.169-.118 20.927-5.949 1.303-1.597 2.187-3.492 3.392-5.165 2.318-3.217 5.734-5.486 9.3-7.217 7.008-3.401 14.9-4.922 22.673-4.479 1.035-4.255 1.596-8.697 1.596-13.272 0-14.573-5.571-27.844-14.694-37.807-3.987.225-7.99.162-11.966-.2-4.957-.452-9.913-1.359-14.878-1.002-5.715.41-11.165 2.475-16.774 3.65-13.68 2.867-27.856.39-41.83.912-3.112 3.982-5.7 8.391-7.654 13.132 14.247.646 28.535.402 42.751-.747 5.926-.479 11.953-1.107 17.765.14 7.866 1.687 14.749 6.689 22.661 8.139 2.183.401 4.432.527 6.534 1.242 2.101.715 4.114 2.172 4.758 4.296.7 2.312-.377 4.808-1.847 6.725-4.486 5.856-12.32 8.171-19.694 8.364-7.375.193-14.685-1.371-22.057-1.641-7.779-.286-15.572.872-23.339.34-10.652-.73-21.161-4.618-31.713-4.357.117 5.622 1.058 11.04 2.715 16.137 3.969.584 8.159.188 12.127-.598 6.228-1.235 12.31-3.345 18.643-3.799 7.556-.542 15.27 1.374 21.695 5.389 1.556.972 3.183 2.316 3.272 4.149.123 2.524-2.645 4.124-5.064 4.855-6.251 1.889-13.012 2.058-19.35.487-4.671-1.158-9.147-3.245-13.944-3.631-4.603-.37-9.314.837-13.92 1.435 1.978 3.837 4.381 7.415 7.155 10.672 1.653-1.045 3.899-1.102 5.93-1.053" fill="#e69534" transform="matrix(.209463 0 0 .209463 174.592467587 233.713369362)"/><path d="m0 1.469c-.096-.708-.604-1.308-1.209-1.687-.606-.38-1.307-.574-1.996-.763-.988-.272-1.977-.543-2.965-.814l-.583-.248c-1.207-.475-2.448-.861-3.712-1.155-.961-.223-1.946-.394-2.93-.317-.91.07-1.789.351-2.646.661-1.734.626-3.424 1.379-5.049 2.252-.414.222-.84.467-1.097.861-.564.864-.036 2.097.833 2.654s1.952.622 2.982.681c3.347.193 6.685.496 10.012.907 2.151.266 4.429.56 6.411-.321 1.092-.485 2.109-1.526 1.949-2.711" fill="#e89f46" transform="matrix(.209463 0 0 .209463 181.664566856 245.95773849)"/><path d="m-1.7-3.315c-2.379 0-4.307.938-4.307 2.094-.001 1.155 1.928 2.093 4.307 2.093s4.307-.938 4.307-2.093c0-1.157-1.928-2.093-4.307-2.094" fill="#b64d10" transform="matrix(-.16733161218 0 0 .16733161218 178.82801891 246.244283874)"/><path d="m0 16.981c-6.019 0-10.897-4.879-10.897-10.897 0-2.921 1.156-5.569 3.027-7.525-2.845 1.966-4.712 5.247-4.712 8.967 0 6.018 4.879 10.896 10.897 10.896 3.098 0 5.886-1.297 7.871-3.372-1.758 1.215-3.887 1.931-6.186 1.931" fill="#222226" fill-opacity=".2" transform="translate(184.136 234.045)"/><path d="m0-18.847c-1.593 0-3.101.35-4.465.964-1.582 1.891-2.538 4.326-2.538 6.986 0 6.018 4.879 10.897 10.898 10.897 1.592 0 3.101-.35 4.464-.964 1.583-1.892 2.538-4.326 2.538-6.986 0-6.018-4.878-10.897-10.897-10.897" fill="#fadcb9" fill-opacity=".2" transform="translate(182.451 249.52)"/></g></g></svg>