<svg clip-rule="evenodd" fill-rule="evenodd" stroke-linejoin="round" stroke-miterlimit="2" viewBox="0 0 500 500" xmlns="http://www.w3.org/2000/svg" xmlns:xlink="http://www.w3.org/1999/xlink"><radialGradient id="a" cx="0" cy="0" gradientTransform="matrix(.443523 -.435543 -.435543 -.443523 .284022 .160299)" gradientUnits="userSpaceOnUse" r="1"><stop offset="0" stop-color="#c73f00"/><stop offset="1" stop-color="#e45400"/></radialGradient><radialGradient id="b" cx="0" cy="0" gradientTransform="matrix(-9.29654 9.2733 -9.2733 -9.29654 5.70871 -13.4611)" gradientUnits="userSpaceOnUse" r="1"><stop offset="0" stop-color="#ff7e14"/><stop offset="1" stop-color="#f25d00"/></radialGradient><radialGradient id="c" cx="0" cy="0" gradientTransform="matrix(71.6775 323.317 -323.317 71.6775 2140.15 985.836)" gradientUnits="userSpaceOnUse" r="1"><stop offset="0" stop-color="#f9fd00" stop-opacity=".5"/><stop offset="1" stop-color="#ea960e" stop-opacity=".5"/></radialGradient><clipPath id="d"><path clip-rule="nonzero" d="m193.349 241.571c0-6.019-4.879-10.898-10.898-10.898-6.018 0-10.897 4.879-10.897 10.898 0 6.018 4.879 10.896 10.897 10.896 6.019 0 10.898-4.878 10.898-10.896z"/></clipPath><g transform="matrix(22.94 0 0 22.941 -3935.42 -5291.88)"><ellipse cx=".5" fill="url(#a)" rx=".5" ry=".5" transform="matrix(0 21.7945 21.7945 0 182.451 230.673)"/><g clip-path="url(#d)"><path d="m0-18.847c-1.593 0-3.101.35-4.465.964-1.582 1.891-2.538 4.326-2.538 6.986 0 6.018 4.879 10.897 10.898 10.897 1.592 0 3.101-.35 4.464-.964 1.583-1.892 2.538-4.326 2.538-6.986 0-6.018-4.878-10.897-10.897-10.897" fill="url(#b)" fill-rule="nonzero" transform="translate(182.451 249.52)"/><path d="m1954.38 889.428c13.26-3.391-10.19 55.545 9.3 66.653 42.84 24.414 103.94-93.88 166.25-55.247 78.49 48.66-65.15 144.026 15.86 206.276 44.21 33.98 113.88-44.1 134.86-76.92 75.5-118.071 99.12-101.986 110.43-80.564 8.64 16.38-19.01 35.142-29.05 45.39-10.5 10.714-15.35 23.584-38.21 33.264-21.7 9.19-13.27 37.12 9.47 36.65 36.6-.75 97.3-55.87 90.08 10.83-3.86 35.67-52.29 17.62-112.55 54.35-49.84 30.38-25.15 60.18-10.29 75.63 13.05 13.56 50.42 58.25 24.51 78.75-18.54 14.68-47.53-16.74-62.94-30.05-35.52-30.66-65.85-2.2-79.21-1.52-40.19 2.04-42.85-21.52-59.47-44.65-51.31-71.38-131.28-10.36-108.04 32.47 10.24 18.87 33.7 109.5-40.42 68.39-63.62-35.29-29.94-85.97-20.58-106.37 17.94-39.1-12.2-53.17-14-77.44-2.09-28.17 22.47-61.91 14-83.65-15.19-38.99-37.89-68.178-61.26-78.715-25.43-11.461 48-70.137 61.26-73.527zm245 315.622c40.88-1.15 60.5-50.46 3.41-51.1-32.63-7.61-40.7 16.94-41.23 25.11-.13 15.14 12.25 26.71 37.82 25.99zm-198.75-94.53c2.7-31.28-12.93-38.61-2.09-68.85 8.8-24.57 33.66-69.364 50.07-80.199 44.96-29.694 51.91-1.377 41.34 30.455-48.31 46.494-28.77 45.914-34.88 99.184-15.53 45.89-47.95 48.72-54.44 19.41z" fill="url(#c)" transform="matrix(.0455527 0 0 .0455527 84.9616 192.833)"/><path d="m0 16.981c-6.019 0-10.897-4.879-10.897-10.897 0-2.921 1.156-5.569 3.027-7.525-2.845 1.966-4.712 5.247-4.712 8.967 0 6.018 4.879 10.896 10.897 10.896 3.098 0 5.886-1.297 7.871-3.372-1.758 1.215-3.887 1.931-6.186 1.931" fill="#222226" fill-opacity=".2" fill-rule="nonzero" transform="translate(184.136 234.045)"/></g></g></svg>