<svg clip-rule="evenodd" fill-rule="evenodd" stroke-linejoin="round" stroke-miterlimit="2" viewBox="0 0 500 500" xmlns="http://www.w3.org/2000/svg" xmlns:xlink="http://www.w3.org/1999/xlink"><clipPath id="a"><path clip-rule="nonzero" d="m193.349 241.571c0-6.019-4.879-10.898-10.898-10.898-6.018 0-10.897 4.879-10.897 10.898 0 6.018 4.879 10.896 10.897 10.896 6.019 0 10.898-4.878 10.898-10.896z"/></clipPath><g transform="matrix(22.94 0 0 22.94 -3935.42 -5291.64)"><ellipse cx=".5" fill="#ce8649" rx=".5" ry=".5" transform="matrix(0 21.7945 21.7945 0 182.451 230.673)"/><g clip-path="url(#a)" fill-rule="nonzero"><path d="m0 16.981c-6.019 0-10.897-4.879-10.897-10.897 0-2.921 1.156-5.569 3.027-7.525-2.845 1.966-4.712 5.247-4.712 8.967 0 6.018 4.879 10.896 10.897 10.896 3.098 0 5.886-1.297 7.871-3.372-1.758 1.215-3.887 1.931-6.186 1.931" fill="#ac7342" transform="translate(184.136 234.045)"/><path d="m0-18.847c-1.593 0-3.101.35-4.465.964-1.582 1.891-2.538 4.326-2.538 6.986 0 6.018 4.879 10.897 10.898 10.897 1.592 0 3.101-.35 4.464-.964 1.583-1.892 2.538-4.326 2.538-6.986 0-6.018-4.878-10.897-10.897-10.897" fill="#daa55c" transform="translate(182.451 249.52)"/><g transform="matrix(.112439 0 0 .112439 79.7394 157.682)"><path d="m885.942 784.367c25.886 18.825 39.024-11.156 14.224-18.451-14.762-4.344-27.176 9.03-14.224 18.451zm-32.244-62.408c-6.308 11.833 4.377 32.094 12.4 16.777 8.024-15.317-6.564-27.716-12.4-16.777zm145.2-27.105c-4.836 2.745-8.886 7.109-10.752 13.953-6.566 24.07 19.694 21.881 5.104 38.658-14.587 16.777-23.34 13.131-24.799 50.329-1.459 37.195-109.857 47.929-54.874 47.929 54.982 0 99.553-44.576 99.553-99.555 0-18.772-5.2-36.329-14.232-51.314zm-45.013 110.437c3.24-7.159-3.059-13.28-9.407-1.879-4.333 7.778 6.168 9.035 9.407 1.879zm25.625-114.719c7.294 2.917 13.13-3.645 1.459-9.481-7.964-3.983-8.753 6.563-1.459 9.481zm-65.933-43.958c24.443 0 46.821 8.814 64.149 23.429-12.026-1.178-39.751-14.829-50.122-18.129-16.046-5.107-36.469 14.588-56.164 14.588-11.372 0-10.096-4.379-3.052-9.063 13.56-6.92 28.919-10.825 45.189-10.825z" fill="#c68634" fill-opacity=".6"/><path d="m1000.07 760.358c-6.454 2.937-15.526 12.003-18.349 28.241-2.825 16.241 9.176 15.532 14.824-.705 5.645-16.238 11.295-31.064 3.525-27.536z" fill="#b87b31"/><path d="m861.204 797.07c-10.472-6.542-32.474-10.59-21.884 2.825 10.588 13.416 33.18 30.357 36.003 23.297 2.825-7.058-2.823-19.061-14.119-26.122z" fill="#92572a" fill-opacity=".6"/><path d="m832.05 705.292c-4.7 5.172-16.237 26.827-10.589 36.007 5.648 9.178 9.883-9.885 14.12-21.18 4.234-11.298 3.528-22.594-3.531-14.827z" fill="#92572a" fill-opacity=".6"/><path d="m833.266 762.755c-4.46-6.877-11.029.551-6.066 8.823 4.963 8.273 19.301 11.579 6.066-8.823z" fill="#92572a" fill-opacity=".6"/><path d="m979.029 808.361c-9.668-1.707-16.542 17.094-7.718 12.132 8.821-4.963 17.092-10.477 7.718-12.132z" fill="#b87b31"/><path d="m1000.35 713.678c-4.287-3.381-7.723 7.721-.554 12.683 7.164 4.963 11.024-4.411.554-12.683z" fill="#b87b31"/><path d="m901.642 832.785c-8.271-1.654-15.439 1.105-6.617 4.413 8.824 3.31 6.617-4.413 6.617-4.413z" fill="#92572a" fill-opacity=".6"/><path d="m876.828 744.006c-4.542-1.361-8.271 4.965-1.655 6.618 6.618 1.652 7.169-4.963 1.655-6.618z" fill="#b87b31"/><path d="m919.288 768.821c-1.903 3.173-1.653 9.928 2.205 4.964 3.861-4.964 1.104-10.479-2.205-4.964z" fill="#ca8837" transform="translate(8.10267 8.10267)"/><path d="m871.865 773.785c-6.478-3.779-18.748 1.102-7.169 4.963 11.579 3.858 13.786-1.102 7.169-4.963z" fill="#b87b31"/><g fill-opacity=".6"><path d="m931.594 763.182c-12.002-29.651 13.414-50.83 24.711-28.239 11.295 22.593 7.764 40.948-4.238 51.537-12.002 10.59-29.65 7.059-21.884-7.058 7.765-14.12 1.411-16.24 1.411-16.24z" fill="#bc741d" transform="matrix(.268859 .601594 -.601594 .268859 1128.56 -27.9909)"/><path d="m858.878 673.522c-1.88 5.374 14.119 2.119 26.122 0 12.001-2.118 16.943 7.06 7.766 16.944-9.179 9.884-32.477 24.004-28.241 12.71 4.238-11.297-3.529-17.652-10.589-15.533s-16.944.706-9.884-7.061c7.059-7.765 19.768-21.18 14.826-7.06z" fill="#bc741d"/><path d="m861.701 754.006c-7.24-1.38-10.59 3.53-3.529 7.058 7.058 3.532 18.355-4.234 3.529-7.058z" fill="#bc741d"/><path d="m916.063 796.366c-4.917-4.917-14.825 2.824-8.472 9.176 6.354 6.354 16.943-.702 8.472-9.176z" fill="#bc741d"/><path d="m883.444 721.95c-7.135-4.461-8.821 7.72-2.204 9.374 6.615 1.655 15.439-1.103 2.204-9.374z" fill="#bc741d"/><path d="m982.149 737.941c-6.778 3.211-12.13 17.645-1.102 12.132 11.029-5.514 11.58-17.094 1.102-12.132z" fill="#bc741d"/><path d="m921.493 704.307c-13.028 1.446-28.673-3.862-25.365 6.615 3.309 10.478 27.021 9.374 40.806 2.757 13.786-6.616-5.516-10.476-15.441-9.372z" fill="#bc741d"/><path d="m912.12 724.156c-6.046-1.209-12.132 1.102-3.308 4.41 8.823 3.31 14.337-2.205 3.308-4.41z" fill="#bc741d"/><path d="m906.604 687.762c-4.289-1.949-8.822 2.759-5.512 7.169 3.307 4.413 11.578-4.411 5.512-7.169z" fill="#bc741d"/><path d="m957.623 729.947c2.917 13.86 20.212 6.25 17.64-9.92-2.365-14.85-20.559-3.937-17.64 9.92zm-29.472-61.822c-14.138-3.367-35.088.898-19.769 11.113 15.316 10.212 44.832-5.146 19.769-11.113z" fill="#bc741d"/><path d="m956.342 680.904c-7-2.691-16.555 6.027-15.067 11.759.891 3.441 8.819 8.821 18.007 10.29 14.81 2.37 11.631-16.443-2.94-22.049z" fill="#bc741d"/><path d="m956.342 680.904c-7-2.691-16.555 6.027-15.067 11.759.891 3.441 8.819 8.821 18.007 10.29 14.81 2.37 11.631-16.443-2.94-22.049z" fill="#bc741d" transform="matrix(-.72297 -.939697 .707214 -.544106 1152.25 2047.18)"/></g><path d="m925.946 818.955c-5.638.771-15.53 6.356-4.941 6.356s20.473-8.471 4.941-6.356z" fill="#b86d2c"/></g></g></g></svg>