<svg clip-rule="evenodd" fill-rule="evenodd" stroke-linejoin="round" stroke-miterlimit="2" viewBox="0 0 500 500" xmlns="http://www.w3.org/2000/svg" xmlns:xlink="http://www.w3.org/1999/xlink"><clipPath id="a"><path clip-rule="nonzero" d="m193.349 241.571c0-6.019-4.879-10.898-10.898-10.898-6.018 0-10.897 4.879-10.897 10.898 0 6.018 4.879 10.896 10.897 10.896 6.019 0 10.898-4.878 10.898-10.896z"/></clipPath><g transform="matrix(22.94 0 0 22.941 -3935.42 -5291.88)"><ellipse cx=".5" fill="#31adff" rx=".5" ry=".5" transform="matrix(0 21.7945 21.7945 0 182.451 230.673)"/><g clip-path="url(#a)" fill-rule="nonzero"><g fill="#1f85e5"><path d="m1763.16 184.665c11.86-2.373 24.33.297 35.6 1.484 14.83 1.187 24.33-4.895 38.57-7.269 8.1-1.297 16.2-.492 24.4.313 6.81.669 13.69 1.338 20.7.8 10.68-.594 38.57-7.158 16.61-16.652-11.27-4.748-21.36-5.36-33.23-5.36-16.02 0-30.26-1.789-45.69-2.976-13.05-1.187-19.58 2.666-31.45 8.599-5.93 2.968-46.28 8.007-26.11 21.061z" transform="matrix(.0612179 0 0 .0612179 69.9371 222.42)"/><path d="m1956.18 198.907c-14.24-2.373-24.92-5.934-39.16-7.12-22.55-1.187-45.1 0-67.65 3.56-28.49 4.747-54.59 11.868-83.08 8.307-18.35-1.898-38.05-9.53-57.48-13.365-7.31 7.706-13.94 16.065-19.78 24.971 7.24-.289 14.13-.925 19.11-.925 48.66 0 96.13 16.616 143.6 13.055 27.3-1.187 53.41-8.307 80.7-5.934 20.18 2.374 37.98 7.121 58.16 4.747.81-.073 1.71-.189 2.68-.343-5.25-9.346-11.3-18.166-18.08-26.363-7.22.467-13.95.579-19.02-.59z" transform="matrix(.0612179 0 0 .0612179 69.9371 222.42)"/><path d="m1831.99 264.181c-28.48 5.934-56.97 7.121-86.64-1.187-17.74-5.647-47.01-18.966-71.76-18.72-9.45 22.621-14.36 47.57-13.61 73.671.79 27.634 7.84 53.616 19.75 76.628 29.89-1.098 56.34-7.673 85.8-2.218 37.98 7.121 70.02 20.175 108 13.055 36.79-7.121 70.02-23.736 108-11.869 3.35 1.06 7.71 2.699 12.68 4.571 14.64-26.776 22.6-57.67 21.66-90.378-.39-13.465-2.27-26.535-5.46-39.064-24.54-1.717-48.21-8.248-73.98-11.61-33.23-4.747-71.21 0-104.44 7.121z" transform="matrix(.0612179 0 0 .0612179 69.9371 222.42)"/><path d="m1790.45 451.695c-26.37-3.638-52.74-13.532-79.1-13.697 33.47 33.841 80.34 54.26 131.68 52.788 47.28-1.357 89.73-21.04 120.73-52.039-30.38-6.515-59.57-.391-89.35 5.733-27.06 5.565-54.6 11.129-83.96 7.215z" transform="matrix(.0612179 0 0 .0612179 69.9371 222.42)"/></g><path d="m1806.68 342.565c-10.41 0-19.56-7.214-30.86-7.967-1.73-.173-3.46-.249-5.2-.249-6.73 0-13.56 1.143-20.35 2.286s-13.56 2.286-20.17 2.286c-8.58 0-16.9-1.926-24.7-8.279-3.96-3.957-12.86-7.834-12.86-13.373l1.78-6.408c3.1-6.639 8.92-8.574 15.25-8.574 4.99 0 10.29 1.199 14.82 2.245 9.69 2.584 18.85 5.168 28.78 5.168 2.23 0 4.5-.13 6.82-.421 9.16-1.077 16.48-3.989 24.22-3.989 3.63 0 7.34.639 11.38 2.407 5.54 1.582 9.5 6.33 15.04 8.703 3.95 1.583 14.24 2.373 15.82 4.747 9.5 10.285-9.49 20.571-18.2 21.362-.52.038-1.05.056-1.57.056z" fill="#196cbd" transform="matrix(.0612179 0 0 .0612179 69.9371 222.42)"/><path d="m1877.03 362.064c-6.86 0-12.69-.334-19.2-3.077-12.69-5.485 3.43-9.238 9.6-9.581 1.01-.078 2.01-.111 3.01-.111 3.02 0 6.01.304 8.98.609 2.96.304 5.91.609 8.84.609 1.74 0 3.48-.108 5.23-.386 7.47-1.247 12.69-4.133 20.01-4.133.73 0 1.49.029 2.27.091 4.89.515 10.17 1.586 15.39 1.586 1.74 0 3.47-.118 5.18-.414h.34c11.66 7.121-11.46 7.134-14.89 8.848-5.76 2.879-7.68 4.375-12.62 4.375-.94 0-1.99-.054-3.2-.164-1.1-.085-2.23-.122-3.38-.122-8.17 0-17.45 1.87-25.56 1.87z" fill="#196cbd" transform="matrix(.0612179 0 0 .0612179 69.9371 222.42)"/><path d="m0 16.981c-6.019 0-10.897-4.879-10.897-10.897 0-2.921 1.156-5.569 3.027-7.525-2.845 1.966-4.712 5.247-4.712 8.967 0 6.018 4.879 10.896 10.897 10.896 3.098 0 5.886-1.297 7.871-3.372-1.758 1.215-3.887 1.931-6.186 1.931" fill="#222226" fill-opacity=".2" transform="translate(184.136 234.045)"/><path d="m0-18.847c-1.593 0-3.101.35-4.465.964-1.582 1.891-2.538 4.326-2.538 6.986 0 6.018 4.879 10.897 10.898 10.897 1.592 0 3.101-.35 4.464-.964 1.583-1.892 2.538-4.326 2.538-6.986 0-6.018-4.878-10.897-10.897-10.897" fill="#fff" fill-opacity=".15" transform="translate(182.451 249.52)"/></g></g></svg>