<svg clip-rule="evenodd" fill-rule="evenodd" stroke-linejoin="round" stroke-miterlimit="2" viewBox="0 0 887 500" xmlns="http://www.w3.org/2000/svg" xmlns:xlink="http://www.w3.org/1999/xlink"><linearGradient id="a" gradientUnits="userSpaceOnUse" x1="-.00002" x2="1.00002" y1="-.000003" y2="-.000003"><stop offset="0" stop-color="#fcbe33"/><stop offset=".28" stop-color="#fcbe33"/><stop offset=".96" stop-color="#fc8a33"/><stop offset="1" stop-color="#fc8a33"/></linearGradient><linearGradient id="b" gradientUnits="userSpaceOnUse" x1="0" x2="1" y1=".032123" y2=".032123"><stop offset="0" stop-color="#ffe1a4"/><stop offset="1" stop-color="#feb86f"/></linearGradient><clipPath id="c"><path clip-rule="evenodd" d="m193.349 241.571c0-6.019-4.879-10.898-10.898-10.898-6.018 0-10.897 4.879-10.897 10.898 0 6.018 4.879 10.896 10.897 10.896 6.019 0 10.898-4.878 10.898-10.896z"/></clipPath><clipPath id="d"><path clip-rule="evenodd" d="m.003.227c-.031-.079.166-.231.44-.339.275-.108.522-.131.554-.051.021.053-.061.139-.199.222.002-.016.002-.032.001-.049.044-.037.066-.072.056-.096-.022-.056-.195-.04-.388.035-.192.076-.33.182-.308.238.011.029.063.038.135.031.01.011.02.022.031.031-.073.017-.139.026-.191.026-.071 0-.118-.016-.131-.048z"/></clipPath><circle cx=".5" fill="url(#a)" r=".5" transform="matrix(0 499.9876245 499.9876245 0 443.698388 .012234)"/><g clip-path="url(#c)" fill-rule="nonzero" transform="matrix(22.941 0 0 22.941 -3741.91986763 -5291.856921354)"><path d="m0-52.419c3.165.041 6.3-.501 9.462-.625.947-.038 1.93-.031 2.796.299 1.643.627 2.415 2.206 3.541 3.406 3.172 3.382 8.932 3.619 13.862 4.633 5.373 1.105 10.385 3.463 14.353 6.751-3.758 1.766-8.479.691-12.292-.987s-7.392-3.95-11.607-4.627c-2.794-.449-5.755-.169-8.422-1.013-2.007-.636-3.69-1.862-5.657-2.585-5.508-2.023-12.227.193-17.693-1.911-1.054-.405-2.061-.972-3.209-1.08-1.149-.109-2.509.474-2.586 1.46-.043.544.315 1.058.762 1.449 3.073 2.692 8.596.39 12.711 1.726 1.473.477 2.704 1.414 4.2 1.836 2.529.716 5.421-.138 7.902.692 1.249.418 2.259 1.222 3.392 1.838 3.275 1.777 7.371 1.885 11.126 2.719 7.282 1.619 13.573 6.069 21.058 6.721-4.043 2.369-9.568 1.441-14.073-.211-4.505-1.651-8.87-3.97-13.767-4.182-3.048-.132-6.105.576-9.139.284-3.162-.305-6.026-1.663-8.93-2.775-6.431-2.459-13.449-3.787-20.492-3.878 3.422 1.48 7.061 2.551 10.687 3.617 4.889 1.437 9.778 2.874 14.665 4.311 3.623 1.065 7.296 2.139 11.117 2.382 2.589.165 5.204-.056 7.782.209 2.631.27 5.191 1.054 7.409 2.293 2.869 1.604 5.235 3.984 8.51 4.851 3.226.853 7.201.213 9.616 2.231-5.901 1.334-12.331 2.201-17.985.232-2.892-1.006-5.403-2.703-8.306-3.686-2.916-.988-6.094-1.214-9.203-1.572-5.173-.596-10.272-1.583-15.362-2.571-6.422-1.245-13.269-2.697-17.694-6.867-1.026-.968-2.806-2.113-3.792-1.114-.269.272-.361.642-.38.999-.092 1.724 1.312 3.283 2.999 4.23 1.689.947 3.662 1.433 5.52 2.111 3.615 1.319 6.815 3.382 10.459 4.644 6.967 2.414 15.056 1.745 21.86 4.477 3.283 1.317 6.165 3.392 9.654 4.241 5.581 1.356 12.25-.525 16.944 2.39-2.758 1.769-6.435 1.97-9.88 2.103-5.362.206-11.065.345-15.702-1.968-2.367-1.181-4.339-2.957-6.903-3.786-3.215-1.039-6.805-.425-10.226-.712-3.899-.327-7.54-1.825-11.403-2.388-2.34-.342-4.788-.347-6.969-1.149-4.066-1.495-6.529-5.512-10.842-6.364 1.858 5.549 4.823 11.597 11.091 13.745 5.787 1.984 12.494-.07 18.527 1.274 2.872.638 5.429 2.013 8.093 3.132 6.073 2.551 12.767 3.79 19.382 5.007 2.762.508 5.538 1.018 8.359 1.144-3.59 1.893-8.127 1.643-12.329 1.331-4.324-.321-8.697-.652-12.803-1.855-3.103-.91-5.999-2.305-9.145-3.103-6.825-1.732-14.342-.542-21.103-2.451 2.524 3.198 8.021 2.919 12.226 4.317 1.731.575 3.293 1.472 4.987 2.121 1.481.567 3.05.942 4.622 1.281 6.805 1.471 13.793 2.319 20.807 2.525-3.223 2.917-7.809 4.701-12.498 4.862-6.84.235-13.16-2.776-19.498-4.987-3.65-1.274-7.437-2.311-10.85-3.997-3.939-1.948-7.257-4.705-10.184-7.684-5.411-5.506-9.707-12.081-10.582-19.233-.281-2.294-.201-4.644.541-6.862 1.568-4.691 5.862-8.293 9.988-11.663 3.217-2.628 6.763-5.392 11.183-5.837 3.792-.381 6.99.251 10.483 1.4 2.87.943 5.668 2.408 8.83 2.449" fill="#c36b00" transform="matrix(.39226 0 0 .39226 181.408 250.89)"/><path d="m0 16.981c-6.019 0-10.897-4.879-10.897-10.897 0-2.921 1.156-5.569 3.027-7.525-2.845 1.966-4.712 5.247-4.712 8.967 0 6.018 4.879 10.896 10.897 10.896 3.098 0 5.886-1.297 7.871-3.372-1.758 1.215-3.887 1.931-6.186 1.931" fill="#222226" fill-opacity=".2" transform="translate(184.136 234.045)"/><path d="m0-18.847c-1.593 0-3.101.35-4.465.964-1.582 1.891-2.538 4.326-2.538 6.986 0 6.018 4.879 10.897 10.898 10.897 1.592 0 3.101-.35 4.464-.964 1.583-1.892 2.538-4.326 2.538-6.986 0-6.018-4.878-10.897-10.897-10.897" fill="#f7ba58" fill-opacity=".25" transform="translate(182.451 249.52)"/></g><g transform="matrix(866.6605098 0 0 -872.3911716 .271799 276.634812)"><path d="m.003.227c-.031-.079.166-.231.44-.339.275-.108.522-.131.554-.051.021.053-.06.138-.198.221.001-.016.001-.031 0-.048.044-.037.066-.072.056-.096-.022-.056-.195-.04-.388.035-.192.076-.33.182-.308.238.011.029.063.038.135.031.01.011.019.022.031.031-.073.017-.139.026-.191.026-.071 0-.118-.016-.131-.048z" fill="url(#b)" fill-rule="nonzero"/><g clip-path="url(#d)" fill="#613704" fill-opacity=".6"><path d="m.009.238c-.031-.08.166-.232.44-.34.261-.102.499-.128.548-.061-.032-.079-.28-.056-.554.051-.274.108-.471.26-.44.339.002.004.004.008.006.011z" transform="matrix(1 0 0 1.0015 0 -.000831)"/><path d="m141.167 107.04c20.447-36.763 98.864-33.369 122.848-28.388 7.16 1.487-11.764 18.516-11.764 18.516s-98.742 3.984-111.084 9.872z" transform="matrix(.00115385 0 0 -.00114627 -.000005 .317087)"/><path d="m740.862 352.39c15.089-27.826-2.858-66.543-53.801-100.436-6.185-4.116-1.326 22.247-1.326 22.247s54.166 68.543 55.127 78.189z" transform="matrix(.00115385 0 0 -.00114627 -.000005 .317087)"/></g></g></svg>