<svg height="180" viewBox="0 0 166 180" width="166" xmlns="http://www.w3.org/2000/svg"><g fill="none" fill-rule="evenodd" transform="translate(1 1)"><path d="m122 93.400679-57.4868098-51.3296316c-5.001012-4.4690393-12.6479494-4.0068892-17.0838352 1.0362644l-14.3835252 16.3467737c-4.4358858 5.0431536-3.9700705 12.7496258 1.0285769 17.2186651l57.4868099 51.3272494z" fill="#f4f2ed"/><path d="m105.652237 110.407066-.004679.002333-14.647558 16.476169 21.863703 8.114432 9.064639-10.202533.002339-.002333 9.069319-10.2002-9.878912-21.594934z" fill="#ddd"/><path d="m114 136.373403 17.844073-20.373403 5.155927 4.626364-17.844073 20.373636z" fill="#e44337"/><path d="m153 127.04132-15.678842-6.04132-8.714674 9.694102-.439991.487504-9.166493 10.197934 7.967161 14.62046 13.010505-14.471176-.302789-.289237.312252.275241z" fill="#ddd"/><path d="m73.9502877 46.7613595c1.2862577 1.1127531 1.4086442 3.0256621.2663705 4.2760514l-32.7707743 35.9440257c-1.1422737 1.2503893-3.110056 1.3646973-4.3963136.2589426-1.2886575-1.1127532-1.4062445-3.0256621-.2663706-4.2760514l32.7707744-35.9440257c1.1446733-1.2527221 3.1124556-1.3670301 4.3963136-.2589426" fill="#e44337"/><g stroke-width=".989"><path d="m77.5713251 129.614173c.4699009.428355.5685801 1.099765.2208534 1.508868l-40.3175009 46.584797c-.3500762.40429-1.010287.387444-1.4825374-.040911l-35.55975386-32.280631c-.47225045-.425948-.57327916-1.099765-.22555246-1.506462l40.31985042-46.5872031c.3524257-.409103 1.0126365-.3850381 1.4872365.0457233z" stroke="#ea3a27"/><path d="m6 152 42-48" stroke="#ea3a27"/><path d="m13 158 42-48" stroke="#ea3a27"/><path d="m21 164 42-48" stroke="#ea3a27"/><path d="m28 171 42-48" stroke="#ea3a27"/><path d="m6 137 37 33" stroke="#ea3a27"/><path d="m14 128 37 34" stroke="#ea3a27"/><path d="m21 121 37 34" stroke="#ea3a27"/><path d="m28 113 37 34" stroke="#ea3a27"/><path d="m35 105 37 34" stroke="#ea3a27"/><path d="m59 113 7-8" stroke="#ea3a27"/><path d="m121.986822 80.6665306c.469902.4259421 1.137162.4476001 1.487239.0433162l40.319934-46.5937288c.347727-.399471.244349-1.0756841-.227902-1.4992197l-35.557478-32.2849636c-.472252-.42594205-1.132464-.44278722-1.482541-.04572259l-40.3152344 46.59132229c-.3524264.4115033-.2513975 1.080497.2161549 1.511252z" stroke="#ea3a27"/><path d="m134 6-42 48" stroke="#ea3a27"/><path d="m141 13-42 48" stroke="#ea3a27"/><path d="m149 19-42 48" stroke="#ea3a27"/><path d="m157 25-42 48" stroke="#ea3a27"/><path d="m121 8 37 33" stroke="#ea3a27"/><path d="m113 16 37 34" stroke="#ea3a27"/><path d="m107 23 37 34" stroke="#ea3a27"/><path d="m99 31 37 34" stroke="#ea3a27"/><path d="m93 39 37 34" stroke="#ea3a27"/><path d="m103 62-7 8" stroke="#ea3a27"/><path d="m140 142 11 10" stroke="#72727c"/></g><path d="m152.655105 147.006425c1.653243 1.465199 1.801549 3.994672.337942 5.64454-1.461175 1.654728-3.994528 1.807808-5.647771.345039-1.653243-1.467629-1.801549-3.997103-.340374-5.6494 1.461176-1.649868 3.994528-1.807808 5.650203-.340179" fill="#e44337"/><path d="m72.5604882 102.591411c.5396075.503078.5886627 1.372931.1121263 1.945399-.4765365.567511-1.2964595.622032-1.833731.116476l-19.4001726-18.2421411c-.5372715-.5055559-.5886627-1.3754094-.1121262-1.9453988.4765364-.5749459 1.2941235-.622032 1.8337309-.1164761z" fill="#72727c"/></g></svg>