<svg clip-rule="evenodd" fill-rule="evenodd" stroke-linejoin="round" stroke-miterlimit="2" viewBox="0 0 500 500" xmlns="http://www.w3.org/2000/svg" xmlns:xlink="http://www.w3.org/1999/xlink"><clipPath id="a"><path clip-rule="nonzero" d="m193.349 241.571c0-6.019-4.879-10.898-10.898-10.898-6.018 0-10.897 4.879-10.897 10.898 0 6.018 4.879 10.896 10.897 10.896 6.019 0 10.898-4.878 10.898-10.896z"/></clipPath><g transform="matrix(22.94 0 0 22.941 -3935.42 -5291.88)"><ellipse cx=".5" fill="#74e8f7" rx=".5" ry=".5" transform="matrix(0 21.7945 21.7945 0 182.451 230.673)"/><g clip-path="url(#a)" fill-rule="nonzero"><g transform="matrix(.0757457 0 0 .0887011 80.8586 211.306)"><path d="m1337.67 261.87c9.25 0 18.5 1.97 27.89 3.443 8.54-.132 17.05-.455 25.52-1.07 8.17-.628 16.34-1.33 24.52-2.008 15.26-2.004 30.17-2.874 45.02-2.88 16.8-.538 33.75-.232 50.96 1.72-3.19-10.503-7.33-20.593-12.31-30.175l-.05-.006c-9.56-1.027-19.09-.894-28.63 1.306-8.72 1.915-17.36 3.288-25.94 4.244-39.3 4.379-77.29-.134-115.28-3.057-2.09-.231-4.16-.41-6.25-.547-23.01-1.512-46.01 2.406-68.84 4.144-6.9.525-13.78.852-20.64.77-4.2.054-8.38.069-12.55.055-13.7-.045-27.32-.405-40.92-.807-4.4 9.331-8.02 19.104-10.76 29.238 55.41-11.609 112.29-4.37 168.26-4.37z" fill="#58d3dd"/><path d="m1208.2 302.114c3.44-.866 6.82-1.732 10.2-2.563 6.78-1.666 13.57-3.183 20.41-4.371 1.31-.419 2.61-.831 3.92-1.267 8.31-2.373 18.99-2.373 27.3-1.186 8.47.339 16.93 1.09 25.36 2.065 4.22.488 8.43 1.034 12.61 1.625 20.93 3.257 41.27 6.569 61.98 8.087 7.71.478 15.4.69 23.07.502 4.53-.022 9.05-.16 13.56-.429 2.66-.157 5.31-.366 7.97-.616 10.73-1.366 21.48-3.788 32.28-7.673 8.8-3.912 19.21-6.201 28.58-4.234 1.93.122 3.88.347 5.84.673 12.89 3.363 25.25 7.519 37.71 10.469-.49-9.04-1.65-17.902-3.43-26.535-5.72-1.455-11.31-2.947-16.83-4.324-16.45-4.099-32.36-7.104-49.5-4.533-3.86.772-7.69 1.734-11.49 2.786-16.18 4.469-31.98 10.578-48.18 10.903-3.43.07-6.88-.113-10.35-.634-12.48-1.755-24.97-3.41-37.45-4.847-30.46-3.507-60.88-5.687-91.2-4.701-25.07.815-50.06 3.805-74.93 9.986-3.36.834-6.71 1.719-10.06 2.671-1.39 8.485-2.18 17.17-2.32 26.013 9.24-.794 18.49-1.963 27.79-3.453 5.75-1.31 11.47-2.792 17.16-4.414z" fill="#4bc6c9"/><path d="m1213.97 325.771c23.99-1.055 48.14-.808 72.67 2.56 4.11.457 8.21.797 12.31 1.056 1.83.051 3.66.094 5.49.13 13.1.336 26.3.188 39.53-.212 33.71-1.751 67.1-6.058 100.48-4.549 4.44.438 8.85.789 13.24 1.079 17.59 1.157 35.09 1.325 52.57 1.195 2.82-.021 5.63-.058 8.44-.092.21-2.626.35-5.27.44-7.928-12.69-.486-25.39-1.158-38.15-2.028-11.71-.798-23.47-1.754-35.32-2.893-2.97-.197-5.93-.131-8.9.121-1.37.117-2.75.278-4.12.468-1.59.219-3.19.479-4.78.774-3.02.713-6.05 1.347-9.08 1.928-23.34 4.47-46.87 5.145-70.41 4.084-24.99-1.125-49.99-4.193-74.79-6.741-3.58-.368-7.15-.725-10.72-1.063-3.92-.009-7.85.076-11.79.267-3.95.19-7.9.485-11.86.9-12.51 1.073-25.02 2.174-37.53 3.209-12.75 1.054-25.51 2.031-38.29 2.836.09 1.996.2 3.984.35 5.962 16.91-1.283 33.61-1.441 50.22-1.063z" fill="#58d3dd"/><path d="m1214.15 359.945c15.34 2.334 30.76 6.395 46.38 12.297 10.68 3.561 22.55 2.374 33.23-1.186 55.45-23.619 116.23-26.786 172.36-11.068 14.45 3.405 28.69 7.887 42.57 13.433 2.03-5.599 3.78-11.328 5.24-17.171-74.16-9.574-148.21-20.758-221.35 2.937-10.75 3.358-22.25 3.293-33.44 1.101-7.8-1.528-15.45-4.101-22.58-7.264-.72-.317-1.43-.629-2.14-.957-8.54-4.163-17.09-6.665-25.64-7.951-14.17-2.134-28.35-.917-42.53 1.641.63 3.364 1.35 6.694 2.17 9.99 15.24-.704 30.49 1.085 45.73 4.198z" fill="#4bc6c9"/><path d="m1226.12 405.473c4.4 0 8.85.072 13.32.197 9.97.278 20.09.819 30.29 1.393 7.53.333 15.11.784 22.72 1.231 5.17.253 10.36.478 15.53.635 4.61.141 9.22.231 13.82.252 18.25-.148 36.05-.148 54.35-4.389 4.41-.861 8.8-1.873 13.14-3.056 8.69-2.367 17.22-5.418 25.53-9.318 3.56-1.187 8.3-2.374 13.05-1.187 16.02 4.747 31.45 11.571 47.03 17.06 3.89 1.373 7.79 2.661 11.81 3.785.68.184 1.35.343 2.03.516 2.56-3.777 4.97-7.66 7.24-11.636-24.66-8-48.33-25.277-72.8-29.804-10.88-2.014-21.93-1.507-33.29 3.464-2.31.943-4.63 1.823-6.96 2.669-48.06 17.5-97.95 14.78-146.73 11.599-14.16-.924-28.23-1.886-42.13-2.4-3.86-.198-7.71-.305-11.55-.328-.92.007-1.84.038-2.76.053-.26.005-.53.01-.79.015 3.47 7.675 7.48 15.057 11.96 22.105 12.11-1.226 23.95-2.368 35.19-2.856z" fill="#4bc6c9"/><path d="m1470 413.875c-4.09-.531-8.2-1.106-12.33-1.727-8.25-1.242-16.6-2.67-25.05-4.302-1.87-.329-3.77-.493-5.69-.545-1.54-.041-3.1-.014-4.68.093-19.31 5.176-38.86 7.966-58.57 9.27-18.17 1.203-36.48 1.146-54.89.486-3.93.064-7.86.085-11.78.078-15.69-.026-31.42-.501-47.16-.897-3.93-.099-7.86-.193-11.77-.261-9.49.051-18.5 1.403-27.59 2.987-3.55.618-7.12 1.269-10.73 1.895 14.08 18.405 31.66 33.982 51.76 45.732 44.11-21.575 91.77-23.433 139.96-14.629 10.14 1.572 20.3 3.488 30.46 5.636 7.26 2.075 14.51 2.335 21.77.784 16.71-11.782 31.3-26.367 43.08-43.071-2.78-.204-5.56-.424-8.34-.678-2.82-.259-5.64-.533-8.45-.851z" fill="#58d3dd"/></g><path d="m0 16.981c-6.019 0-10.897-4.879-10.897-10.897 0-2.921 1.156-5.569 3.027-7.525-2.845 1.966-4.712 5.247-4.712 8.967 0 6.018 4.879 10.896 10.897 10.896 3.098 0 5.886-1.297 7.871-3.372-1.758 1.215-3.887 1.931-6.186 1.931" fill="#222226" fill-opacity=".2" transform="translate(184.136 234.045)"/><path d="m0-18.847c-1.593 0-3.101.35-4.465.964-1.582 1.891-2.538 4.326-2.538 6.986 0 6.018 4.879 10.897 10.898 10.897 1.592 0 3.101-.35 4.464-.964 1.583-1.892 2.538-4.326 2.538-6.986 0-6.018-4.878-10.897-10.897-10.897" fill="#fff" fill-opacity=".15" transform="translate(182.451 249.52)"/></g></g></svg>