<svg clip-rule="evenodd" fill-rule="evenodd" stroke-linejoin="round" stroke-miterlimit="2" viewBox="0 0 500 500" xmlns="http://www.w3.org/2000/svg" xmlns:xlink="http://www.w3.org/1999/xlink"><radialGradient id="a" cx="0" cy="0" gradientTransform="matrix(-13.1006 11.1964 -11.1964 -13.1006 7.8705 -14.9314)" gradientUnits="userSpaceOnUse" r="1"><stop offset="0" stop-color="#f9b402"/><stop offset="1" stop-color="#fda029"/></radialGradient><linearGradient id="b" gradientTransform="matrix(-140.368 213.683 -213.683 -140.368 1099.92 895.969)" gradientUnits="userSpaceOnUse" x1="0" x2="1" y1="0" y2="0"><stop offset="0" stop-color="#ffe033" stop-opacity=".6"/><stop offset="1" stop-color="#ffb219" stop-opacity=".6"/></linearGradient><clipPath id="c"><path clip-rule="nonzero" d="m193.349 241.571c0-6.019-4.879-10.898-10.898-10.898-6.018 0-10.897 4.879-10.897 10.898 0 6.018 4.879 10.896 10.897 10.896 6.019 0 10.898-4.878 10.898-10.896z"/></clipPath><g transform="matrix(22.94 0 0 22.94 -3935.42 -5291.64)"><ellipse cx=".5" fill="#fc8221" rx=".5" ry=".5" transform="matrix(0 21.7945 21.7945 0 182.451 230.673)"/><g clip-path="url(#c)"><path d="m0-18.847c-1.593 0-3.101.35-4.465.964-1.582 1.891-2.538 4.326-2.538 6.986 0 6.018 4.879 10.897 10.898 10.897 1.592 0 3.101-.35 4.464-.964 1.583-1.892 2.538-4.326 2.538-6.986 0-6.018-4.878-10.897-10.897-10.897" fill="url(#a)" fill-rule="nonzero" transform="translate(182.451 249.52)"/><path d="m849.083 846.075c-12.439 7.196-11.997 18.757-9.971 28.165 1.243 5.775 4.863 11.861 3.931 19.884-1.219 10.494-7.752 15.712-13.797 23.653-17.453 22.923-37.209 49.737-40.016 79.399-3.26 34.434-.726 55.544 25.125 74.884 9.099 6.8 26.816 13.66 41.795 8.11 23.995-8.88 41.518-30.44 59.667-47.08 21.781-19.97 36.808-37.889 55.306-50.772 22.802-15.883 68.167-24.715 81.707-26.804 20.93-3.23 49.98-3.966 63.34 1.807 7.15 3.088 14.59 13.938 15.5 20.801 2.02 15.216-2.62 43.128-12.03 59.448-9.97 17.32-37.04 40.23-48.52 49.19-6.56 5.11-28.77 27.6-31.72 35.62-3.6 9.8-14 34.69 25.45 46.5 29.01 8.69 72.07-11.88 82.22-10.47 36.26 5.04 15.92 68.93 51.83 61.21 4.18-.9 7.83-1.25 11.8-2.93 5.12-2.16 10.72-5.7 14.93-9.37 6.9-6.02 14.82-13.51 20.37-20.76 8.02-10.48 15.23-23.2 16.89-36.53 1.17-9.28 2.6-21.29-.18-30.42-3.48-11.4-22.31-18.36-32.07-18.58-19.68-.44-68.6 8.93-69.24-22.44-.35-16.77 5.64-48.98 8.61-55.13 5.47-11.35 16.53-42.494 18.07-54.073 1.62-12.078 2.77-45.968-6.21-57.121-18.26-22.685-86.54-17.639-109.48-5.026-5.76 3.169-35.6 21.176-40.22 7.493-3.2-9.45 2.86-17.535 10.74-22.171 16.09-9.464 32.52-13.359 46.74-25.892 7.07-6.234 6.47-24.84-3.95-27.236-67.41-15.506-120.24 53.775-133.864 85.753-5.516 12.946-23.892 29.071-37.082 35.519-3.28 1.604-23.726 6.863-33.086-3.255-1.053-1.137-12.633-12.209-9.824-22.637 6.143-22.804 20.241-42.214 24.498-65.917.78-4.34 2.146-20.919-3.105-23.783-17.189-9.375-31.293-6.478-44.154.961z" fill="url(#b)" transform="matrix(.0455527 0 0 .0455527 137.579 192.833)"/><path d="m848.74 1256.6c-13.546 8.54-79.199 29.53-75.245-32.08.841-13.09 38.696-5.12 58.874-7.15 16.707-1.68 55.794-28.71 93.282-17.84 15.38 4.47 22.602 22.11 23.754 27.08 2.904 12.53-1.912 25.01-4.988 36.78-2.782 10.65-11.982 56.12-33.454 58.29-8.796.9-16.86-16.37-14.775-22.48 5.891-17.27 9.585-34.47-5.775-43.8-15.245-9.26-35.634-2.61-41.673 1.2z" fill="#fdce40" fill-opacity=".39" transform="matrix(.0455527 0 0 .0455527 136.622 192.878)"/><path d="m0 16.981c-6.019 0-10.897-4.879-10.897-10.897 0-2.921 1.156-5.569 3.027-7.525-2.845 1.966-4.712 5.247-4.712 8.967 0 6.018 4.879 10.896 10.897 10.896 3.098 0 5.886-1.297 7.871-3.372-1.758 1.215-3.887 1.931-6.186 1.931" fill="#222226" fill-opacity=".2" fill-rule="nonzero" transform="translate(184.136 234.045)"/></g></g></svg>